<svg id="Layer_1" data-name="Layer 1" xmlns="http://www.w3.org/2000/svg" viewBox="0 0 400 300"><title>#109_report analysis_twocolour</title><rect x="70.27" y="41.39" width="248.54" height="153.57" fill="#24285b"/><path d="M117.4,126.65A23.65,23.65,0,1,1,141.05,103,23.68,23.68,0,0,1,117.4,126.65Zm0-40.93A17.28,17.28,0,1,0,134.68,103,17.3,17.3,0,0,0,117.4,85.72Z" fill="#fff"/><path d="M193.44,96.9s-10.59-3.07-14.87,3.8,5.05,18.7-3.95,26,25.67,6.22,25.67,6.22l-5.75-18.52,2.53-13.42Z" opacity="0.08"/><path d="M117.4,126.65a23.62,23.62,0,0,1-15.68-6l4.23-4.76a17.26,17.26,0,0,0,11.45,4.35Z" fill="#fff"/><path d="M141.05,103h-6.37A17.3,17.3,0,0,0,117.4,85.72V79.35A23.68,23.68,0,0,1,141.05,103Z" fill="#1e8e42"/><path d="M117.4,126.65v-6.37A17.3,17.3,0,0,0,134.68,103h6.37A23.68,23.68,0,0,1,117.4,126.65Z" fill="#ffd200"/><rect x="104.05" y="135.57" width="26.71" height="11.03" fill="#1e8e42"/><path d="M103.05,110.07S88.3,112.73,90,126.65,86.62,189.72,119.85,195h58.72l5.38-40.9-8.9-10.84-26.43,13.34-31.22,4.1L106.58,146.6Z" opacity="0.08"/><path d="M117.93,95.35c.41,0,.54.15.54.57v.89a4.09,4.09,0,0,1,3.36,2.54c.22.44.13.67-.36.89l-.9.4c-.42.21-.62.11-.86-.32a2.28,2.28,0,0,0-2.33-1.41c-1.55,0-2.27.46-2.27,1.5,0,.67.62,1.09,1.26,1.22a9.92,9.92,0,0,0,1.32.2,8.59,8.59,0,0,1,2.43.48,3.18,3.18,0,0,1,1.07.58,3.55,3.55,0,0,1,1,2.56c0,2-1.33,3.34-3.69,3.68v1c0,.42-.13.57-.54.57h-1c-.42,0-.56-.15-.56-.57v-.93a4.16,4.16,0,0,1-3.66-2.81.6.6,0,0,1,.42-.84l.9-.33c.45-.16.66,0,.86.4a2.37,2.37,0,0,0,2.46,1.54c1.68,0,2.52-.53,2.52-1.61a1.13,1.13,0,0,0-.78-1.13,6.51,6.51,0,0,0-1.81-.35,8,8,0,0,1-2.45-.53,3.35,3.35,0,0,1-1.06-.6,3.31,3.31,0,0,1-1-2.48c0-2,1.24-3.29,3.58-3.6v-.89c0-.42.14-.57.56-.57Z" fill="#fff"/><path d="M177.55,131.7a11.07,11.07,0,0,0-16.31-6.7c-6.19,3.67-14.44,10.45-23.8,23-19.1,25.56-27.62-25.15-27.62-25.15l-10,2S97.06,179,130,173.3C158.84,168.31,184,156.4,177.55,131.7Z" fill="#1e8e42"/><path d="M177.55,131.7a11.07,11.07,0,0,0-16.31-6.7c-6.19,3.67-14.44,10.45-23.8,23-19.1,25.56-27.62-25.15-27.62-25.15l-10,2S97.06,179,130,173.3C158.84,168.31,184,156.4,177.55,131.7Z" fill="#fff" opacity="0.46"/><ellipse cx="203.12" cy="264.18" rx="134.12" ry="12.71" fill="#e6e6e6" opacity="0.45"/><path d="M110.41,251.06s-7.58-2.07-9.23-9.13c0,0,11.75-2.38,12.08,9.75Z" fill="#1e8e42" opacity="0.58"/><path d="M111.34,250.31s-5.3-8.38-.64-16.21c0,0,8.94,5.67,5,16.22Z" fill="#1e8e42" opacity="0.73"/><path d="M112.71,250.31s2.8-8.85,11.26-10.52c0,0,1.59,5.74-5.48,10.55Z" fill="#1e8e42"/><polygon points="107.2 250.11 108.74 260.63 118.43 260.67 119.85 250.16 107.2 250.11" fill="#24285b"/><path d="M220.88,258.18l4.78,3.73a1.13,1.13,0,0,1-.7,2h-6.05a3.23,3.23,0,0,1-3.23-3.23v-2.52Z" fill="#1e8e42"/><path d="M169.85,258.18l-4.78,3.73a1.13,1.13,0,0,0,.7,2h6a3.23,3.23,0,0,0,3.23-3.23v-2.52Z" fill="#1e8e42"/><polygon points="294.07 198.81 298.3 174.9 268.31 174.9 265.71 195.28 251.96 195.47 251.96 198.81 294.07 198.81" fill="#ffd200"/><path d="M189.27,120.66l3.32-14.51s.11-6.79,4.48-5.22,5.67,9.46,3.32,12.13-3.93-1-3.93-1v8Z" fill="#f4a28c"/><path d="M184.92,120s-27.17-2.42-30.72,15.93,21.74,53,21.74,53l35.24-1.37S265.94,110.63,184.92,120Z" fill="#1e8e42"/><polygon points="270.84 177.67 268.8 194.96 291.12 194.96 293.73 177.67 270.84 177.67" fill="#fff"/><path d="M190.29,110.9l.06-3.43a5.86,5.86,0,0,0-1.67-4.29,2.2,2.2,0,0,1-.38-3.09c1.8-2.58,3.32-.91,5.14-3.19s3.18-2.73,5.3,0,3.79-.45,5,2.89.15,5-4.55,5.3c-4,.26-2.75,4.79-6.46,7.17A1.59,1.59,0,0,1,190.29,110.9Z" fill="#ffd200"/><path d="M286.83,186.32s2.25,3.35-1.66,4.51-11.75-3.33-13.34.59.59,3.54.59,3.54l-6.71.32L267,185l5.73-4.3,5.92.66Z" opacity="0.08"/><path d="M198.17,132.87s-5.92,13.84,0,26.63-10.35,28.95-10.35,28.95l23.36-.91s8.56-12.69,10.26-17.62S198.17,132.87,198.17,132.87Z" opacity="0.08"/><path d="M199.88,143.25c-7.74-15.47,12.63-29.57,24.32-16.82a49.15,49.15,0,0,1,10,17.73c9,26.63,42.29,32.51,42.29,32.51v8.13s-52.08,4.84-73.62-36.7A29.85,29.85,0,0,1,199.88,143.25Z" fill="#1e8e42"/><path d="M199.88,143.25c-7.74-15.47,12.63-29.57,24.32-16.82a49.15,49.15,0,0,1,10,17.73c9,26.63,42.29,32.51,42.29,32.51v8.13s-52.08,4.84-73.62-36.7A29.85,29.85,0,0,1,199.88,143.25Z" fill="#fff" opacity="0.46"/><polygon points="175.94 188.91 167.94 258.18 175.77 258.19 193.26 202.58 212.97 258.2 221.93 258.2 211.18 187.54 175.94 188.91" fill="#24285b"/><rect x="242.95" y="198.01" width="67.09" height="65.92" fill="#c9c9c9"/><path d="M276.5,183.52s5.78,5.59,9.7,4,.67-9.31-9.7-9.89Z" fill="#f4a28c"/><path d="M265,198s-18.11,52.16,17.4,65.9H242.79V198Z" opacity="0.08"/><path d="M109.82,122.82s-1-12.79-4.92-13.44-1.58,6.72-1.58,6.72c-1.56,2-7.89,4-3.55,8.68Z" fill="#f4a28c"/><circle cx="85.56" cy="55.96" r="4.4" fill="#fff"/><circle cx="98.65" cy="55.96" r="4.4" fill="#1e8e42"/><circle cx="110.98" cy="55.96" r="4.4" fill="#ffd200"/><rect x="299.79" y="26.04" width="54.04" height="34.44" fill="#ffd200"/><rect x="310.45" y="46.18" width="7.33" height="7.33" fill="#24285b"/><rect x="322.81" y="38.3" width="7.33" height="15.21" fill="#24285b"/><rect x="335.84" y="33.01" width="7.33" height="20.5" fill="#24285b"/><rect x="271.12" y="134.21" width="27.32" height="4.6" fill="#fff"/><rect x="271.12" y="146.33" width="27.32" height="4.6" fill="#fff"/><rect x="254.55" y="134.21" width="8.06" height="4.6" fill="#1e8e42"/><rect x="254.55" y="146.33" width="8.06" height="4.6" fill="#ffd200"/><circle cx="274.12" cy="91.71" r="27.5" fill="#fff"/><path d="M274.12,64.21v27.5l26.93-5.6S297.29,64,274.12,64.21Z" fill="#ffd200"/><path d="M274.12,91.71l-15.28,22.86s15.41,11.73,33.26-2.06c0,0,12.22-8.85,8.95-26.4Z" fill="#1e8e42"/></svg>