<svg id="Layer_1" data-name="Layer 1" xmlns="http://www.w3.org/2000/svg" viewBox="0 0 400 300"><title>#93_artificial intelligence_twocolour</title><ellipse cx="198.25" cy="256.78" rx="164.25" ry="17.92" fill="#e6e6e6" opacity="0.45"/><polygon points="299.51 221.47 285.92 253.9 282.04 253.15 289.2 219.23 299.51 221.47" fill="#f4a28c"/><path d="M282.33,253.2s-2.67,2.3-5.38,1.64-3.86,3.13.62,3.58a25.57,25.57,0,0,0,4.19.09,7.23,7.23,0,0,1,3.69.85,1.21,1.21,0,0,0,1.35-.26c1.54-1.23-.88-5.2-.88-5.2Z" fill="#0065ff"/><polygon points="321.92 215.71 336.04 247.9 332.82 250.2 313.18 221.63 321.92 215.71" fill="#f4a28c"/><path d="M333.06,250s-.17,3.52-2.52,5-.4,5,3,2a25.28,25.28,0,0,0,2.95-3,7.23,7.23,0,0,1,3.16-2.09,1.21,1.21,0,0,0,.74-1.16c.17-2-4.37-2.95-4.37-2.95Z" fill="#0065ff"/><path d="M97.84,88.46C70,103,53.55,129.79,56.17,157.72,57.51,172,63.67,185.78,80,193.3c43.47,20.07,233.28,20.41,261.37-15.05S359,92.41,297.9,71.42C245,53.23,169.65,50.82,97.84,88.46Z" fill="#e6e6e6" opacity="0.3"/><polyline points="226.59 119.66 226.59 83.63 256.54 83.63" fill="none" stroke="#a5a5a5" stroke-linecap="round" stroke-linejoin="round" stroke-width="4"/><circle cx="262.61" cy="83.49" r="6.07" fill="none" stroke="#e6e6e6" stroke-linecap="round" stroke-linejoin="round" stroke-width="4"/><line x1="212.11" y1="115.4" x2="212.11" y2="45.75" fill="none" stroke="#a5a5a5" stroke-linecap="round" stroke-linejoin="round" stroke-width="4"/><circle cx="212.11" cy="39.67" r="6.07" fill="none" stroke="#e6e6e6" stroke-linecap="round" stroke-linejoin="round" stroke-width="4"/><line x1="192.69" y1="133.93" x2="192.69" y2="64.28" fill="none" stroke="#a5a5a5" stroke-linecap="round" stroke-linejoin="round" stroke-width="4"/><circle cx="192.69" cy="58.2" r="6.07" fill="none" stroke="#e6e6e6" stroke-linecap="round" stroke-linejoin="round" stroke-width="4"/><line x1="173.34" y1="115.71" x2="173.34" y2="46.06" fill="none" stroke="#a5a5a5" stroke-linecap="round" stroke-linejoin="round" stroke-width="4"/><polyline points="158.53 119.66 158.53 83.63 128.57 83.63" fill="none" stroke="#a5a5a5" stroke-linecap="round" stroke-linejoin="round" stroke-width="4"/><polygon points="173.23 182.05 168.55 234.39 145.46 256.33 239.75 256.33 218.4 234.39 208.03 182.05 173.23 182.05" fill="#ffd200"/><path d="M144.95,119.66h10.34a0,0,0,0,1,0,0v40.9a0,0,0,0,1,0,0H144.95a20.37,20.37,0,0,1-20.37-20.37V140A20.37,20.37,0,0,1,144.95,119.66Z" fill="#ffd200"/><path d="M251,119.66h10.34a0,0,0,0,1,0,0v40.9a0,0,0,0,1,0,0H251a20.37,20.37,0,0,1-20.37-20.37V140A20.37,20.37,0,0,1,251,119.66Z" transform="translate(491.99 280.22) rotate(180)" fill="#ffd200"/><path d="M144.95,119.66h10.34a0,0,0,0,1,0,0v40.9a0,0,0,0,1,0,0H144.95a20.37,20.37,0,0,1-20.37-20.37V140A20.37,20.37,0,0,1,144.95,119.66Z" opacity="0.08"/><path d="M251,119.66h10.34a0,0,0,0,1,0,0v40.9a0,0,0,0,1,0,0H251a20.37,20.37,0,0,1-20.37-20.37V140A20.37,20.37,0,0,1,251,119.66Z" transform="translate(491.99 280.22) rotate(180)" opacity="0.08"/><path d="M171.32,203.39,169.75,221s31.48,8.6,44.25-8.79l-1.46-7.38Z" opacity="0.08"/><path d="M147,108.17h92.75a0,0,0,0,1,0,0V162.7a46.2,46.2,0,0,1-46.2,46.2h-.35A46.2,46.2,0,0,1,147,162.7V108.17A0,0,0,0,1,147,108.17Z" fill="#fff8dc"/><polygon points="187.21 145.34 183.11 177.17 202.34 177.17 196.35 145.34 187.21 145.34" fill="#ffd200"/><path d="M156.47,134.92s11.67,10.08,24.27,0" fill="none" stroke="#24285b" stroke-linecap="round" stroke-linejoin="round" stroke-width="3"/><path d="M204.74,191.82s-11.67-10.09-24.27,0" fill="none" stroke="#24285b" stroke-linecap="round" stroke-linejoin="round" stroke-width="3"/><path d="M204.49,134.92s11.66,10.08,24.26,0" fill="none" stroke="#24285b" stroke-linecap="round" stroke-linejoin="round" stroke-width="3"/><circle cx="122.5" cy="83.49" r="6.07" fill="none" stroke="#e6e6e6" stroke-linecap="round" stroke-linejoin="round" stroke-width="4"/><circle cx="173.34" cy="39.99" r="6.07" fill="none" stroke="#e6e6e6" stroke-linecap="round" stroke-linejoin="round" stroke-width="4"/><rect x="94.72" y="208.67" width="36.5" height="47.67" fill="#e6e6e6"/><path d="M109.55,198.36s-8.31-2.27-10.12-10c0,0,12.88-2.6,13.24,10.69Z" fill="#0065ff" opacity="0.58"/><path d="M110.57,197.54s-5.81-9.19-.7-17.77c0,0,9.79,6.22,5.44,17.79Z" fill="#0065ff" opacity="0.73"/><path d="M112.06,197.54s3.07-9.69,12.35-11.53c0,0,1.74,6.3-6,11.56Z" fill="#0065ff"/><polygon points="106.04 197.32 107.72 208.85 118.33 208.9 119.9 197.38 106.04 197.32" fill="#24285b"/><path d="M131.22,221.25s-4.79,27.37-36.5,23.56v11.52h36.5Z" opacity="0.02"/><path d="M300.63,118.37s12.87,5.23,2.19,29.57-30.36,52.42-67.16,34.77a5.5,5.5,0,0,1-7-1.06c-3.17-3.51,4.57-4.87,7.2-2.53,0,0,37.26-1.12,41.24-23.18S284.42,111.81,300.63,118.37Z" fill="#f4a28c"/><path d="M300.63,118.37s12.87,5.23,2.19,29.57-30.36,52.42-67.16,34.77a5.5,5.5,0,0,1-7-1.06c-3.17-3.51,4.57-4.87,7.2-2.53,0,0,37.26-1.12,41.24-23.18S284.42,111.81,300.63,118.37Z" opacity="0.08"/><path d="M288.2,91.77a28,28,0,0,0-.31,7.4,2.25,2.25,0,0,0,2.58,1.86,5,5,0,0,0,4.19-3.36l1.68-3.77A4,4,0,0,0,295,89.48C292.63,87.45,288.55,89.07,288.2,91.77Z" fill="#f4a28c"/><polygon points="296.57 95.47 297.98 110.02 289.9 110.22 292.07 99.82 296.57 95.47" fill="#f4a28c"/><path d="M287.85,94.56l-1.39,1.6a.71.71,0,0,0,.34,1.15l1.67.48Z" fill="#f4a28c"/><path d="M292,100.11a5.4,5.4,0,0,0,2.59-1.32s.61,3.14-3.21,4.3Z" fill="#ce8172" opacity="0.31"/><path d="M293,95.38s.18-1.71,1.46-1.46,1,2.72-.75,2.79Z" fill="#f4a28c"/><path d="M289.15,91.64a12.61,12.61,0,0,0,4.23.7s.07,5,3.74,6.92c0,0,4.91-6.67.87-10.26-3.37-3-5.83-5.58-9.41-3.28A3.34,3.34,0,0,0,289.15,91.64Z" fill="#24285b"/><circle cx="300.85" cy="87.34" r="4.44" fill="#24285b"/><path d="M292.87,94.9s.52-1.92,2-1.35,1.1,2.85-1,3.42Z" fill="#f4a28c"/><polygon points="326.06 179.75 331.25 224.98 283 224.98 291.38 183.18 326.06 179.75" fill="#24285b"/><path d="M267.07,177l-3.51-4.19a15.4,15.4,0,0,0,.74-3.46l4.93-2.4a2.11,2.11,0,0,0,1.06-2.52l-2.76-8.52a2.09,2.09,0,0,0-2.34-1.45l-5.4.93a17.71,17.71,0,0,0-2.62-2.37l.38-5.43a2.07,2.07,0,0,0-1.65-2.19l-8.79-1.88a2.06,2.06,0,0,0-2.39,1.31L242.83,150a17.94,17.94,0,0,0-3.35,1.1L234.93,148a2.13,2.13,0,0,0-2.71.36l-6,6.65a2.11,2.11,0,0,0-.07,2.75l3.51,4.19c-.2.63-.36,1.19-.47,1.71a17.57,17.57,0,0,0-.27,1.75L224,167.8a2.1,2.1,0,0,0-1.06,2.52l2.76,8.52a2.08,2.08,0,0,0,2.34,1.45l5.4-.93a17.64,17.64,0,0,0,2.61,2.37l-.37,5.43a2.07,2.07,0,0,0,1.65,2.19l8.78,1.88a2.08,2.08,0,0,0,2.4-1.31l1.88-5.13a17,17,0,0,0,3.35-1.09l4.56,3.06a2.06,2.06,0,0,0,2.71-.35l6-6.68A2.11,2.11,0,0,0,267.07,177ZM245,175a7.81,7.81,0,1,1,9.27-6A7.83,7.83,0,0,1,245,175Z" fill="#24285b"/><path d="M294.49,110h0s18.75-4.36,26.71,18.57c5.88,16.92,4.86,51.21,4.86,51.21l-38.16,3.77s5.48-18.49-8.4-22.88c-12.69-4-18.54-21.33.79-44A19.29,19.29,0,0,1,294.49,110Z" fill="#0065ff"/><path d="M293,183l18.87-1.87S324.27,154.6,322.51,133c0,0-3.41-13.74-11.17-19.07s-11.76,45.59-11.76,45.59Z" opacity="0.08"/><path d="M306.57,111.28s13.72,2.2,8.79,28.32-17.76,57.92-57.6,49a5.51,5.51,0,0,1-7.08.55c-3.88-2.7,3.36-5.78,6.45-4.08,0,0,36.05-9.49,35-31.88S289.29,108.55,306.57,111.28Z" fill="#f4a28c"/><circle cx="246.26" cy="168.21" r="8.72" fill="none" stroke="#24285b" stroke-miterlimit="10" stroke-width="5"/><circle cx="246.26" cy="168.21" r="8.72" fill="none" stroke="#fff" stroke-miterlimit="10" stroke-width="5" opacity="0.15"/><rect x="70.5" y="236.56" width="24.22" height="19.77" fill="#c9c9c9"/><path d="M285.81,112.25s-1.68-1.87,3.19-4.75,12.12-4.25,12.37,2.38C301.37,109.88,292.75,109,285.81,112.25Z" fill="#0065ff"/><path d="M285.81,112.25s-1.68-1.87,3.19-4.75,12.12-4.25,12.37,2.38C301.37,109.88,292.75,109,285.81,112.25Z" fill="#fff" opacity="0.46"/></svg>