<svg id="Layer_1" data-name="Layer 1" xmlns="http://www.w3.org/2000/svg" viewBox="0 0 400 300"><title>#8 navigation</title><rect x="120.79" y="49.44" width="171.73" height="132.46" fill="#e6e6e6"/><rect x="133.6" y="59.32" width="146.11" height="112.7" fill="#c9c9c9"/><polygon points="176.88 126.13 187.38 131.52 180.63 144.74 187.38 147.58 170.13 181.9 138.62 181.9 141.88 152.25 146.81 143.85 159.13 126.13 171.88 126.13 176.88 126.13" opacity="0.1"/><polygon points="135.03 152.58 152.55 130.75 156.34 134.06 141.4 159.03 135.03 152.58" fill="#0065ff"/><ellipse cx="192.14" cy="259.57" rx="126.74" ry="16.11" fill="#e6e6e6" opacity="0.45"/><path d="M276.82,241.38s-10-2.69-12.2-12c0,0,15.44-3.19,15.95,12.76Z" fill="#0065ff" opacity="0.58"/><path d="M278,240.38s-7-11-.92-21.32c0,0,11.79,7.42,6.62,21.32Z" fill="#0065ff" opacity="0.73"/><path d="M279.83,240.38s3.64-11.65,14.76-13.9c0,0,2.12,7.54-7.15,13.9Z" fill="#0065ff"/><polygon points="272.59 240.15 274.67 253.98 287.41 253.98 289.23 240.15 272.59 240.15" fill="#24285b"/><polygon points="106.01 116.61 109.25 126.31 101.57 131.19 98.81 114.38 106.01 116.61" fill="#f4a28c"/><path d="M96.17,105a6,6,0,0,1,10-1.67c3.26,3.48,7.2,9,2.75,12-6.82,4.62-13.08-4-13.08-4A11,11,0,0,1,96.17,105Z" fill="#f4a28c"/><path d="M101.16,111s-1.75-1.46-2.54.62,2.3,3.08,3.22,2S101.16,111,101.16,111Z" fill="#f4a28c"/><path d="M92.61,136a19.62,19.62,0,0,1,12.31-10.75c10.43-3.13,29.63.3,35.49,10.06,8,13.35-3.72,55.78-3.72,55.78l-35,2.72S82.36,159,92.61,136Z" fill="#0065ff"/><polygon points="136.69 191.04 132.08 251.3 124.79 251.3 118.28 204.49 102.17 193.76 136.69 191.04" fill="#24285b"/><polygon points="102.17 193.76 92.11 251.3 99.92 251.3 116.8 203.5 102.17 193.76" fill="#24285b"/><path d="M108,124.29s-16.4,52.8,31,56.31L136.69,191l-35,2.72s-12.35-19.39-11.83-46.63c0,0,.3-13.47,9.78-19.42A21.27,21.27,0,0,1,108,124.29Z" opacity="0.08"/><path d="M93.94,251.18l-4.71,3.47a1,1,0,0,0,.62,1.87h7.89a1,1,0,0,0,1-1v-4.3Z" fill="#0065ff"/><path d="M131.17,251.18l4.43,3.47a1,1,0,0,1-.65,1.87h-5.61a3,3,0,0,1-3-3v-2.34Z" fill="#0065ff"/><path d="M122.24,124.93a17.67,17.67,0,0,0,0,18.69c3.82,6.45,14.94,19,22.55,27.32a8,8,0,0,0,12.94-1.51l16.33-28.8-5.54-3.55-15,21.95S143.31,125.35,122.24,124.93Z" fill="#0065ff"/><path d="M122.24,124.93a17.67,17.67,0,0,0,0,18.69c3.82,6.45,14.94,19,22.55,27.32a8,8,0,0,0,12.94-1.51l16.33-28.8-5.54-3.55-15,21.95S143.31,125.35,122.24,124.93Z" fill="#fff" opacity="0.2"/><line x1="247.05" y1="117.46" x2="247.05" y2="172.02" fill="none" stroke="#e6e6e6" stroke-miterlimit="10" stroke-width="7"/><path d="M172.13,139.4s9.27-3.41,5.49-8.66-9.1,6.34-9.1,6.34Z" fill="#f4a28c"/><rect x="169.08" y="121.7" width="9.16" height="13.36" transform="translate(67.64 -59.77) rotate(24.13)" fill="#ffd200"/><path d="M88.62,136.49c5.33-2.57,14-5.78,22.36-4.78a9.28,9.28,0,0,1,7.63,6c2.24,6.09,5.72,17.22,5.53,27a9.4,9.4,0,0,1-6.09,8.66,86.72,86.72,0,0,1-20.88,4.69,9.39,9.39,0,0,1-10-6.7,102.19,102.19,0,0,1-3.85-26.26A9.35,9.35,0,0,1,88.62,136.49Z" fill="#24285b"/><polygon points="236.34 49.44 282.63 49.44 282.63 50.5 259.48 89.93 247.76 89.93 236.34 49.44" opacity="0.1"/><circle cx="97.99" cy="147.58" r="2.69" fill="#fff"/><path d="M111,131.71s5.68-8.8,12.4-7.63S130.6,127,130.6,127s-10.07.09-13.8,8.75Z" fill="#24285b"/><path d="M123.87,158.92s3.36,4,15,4.81l4.31,5.48a29.33,29.33,0,0,1-21.12-3.88C111.93,158.76,123.87,158.92,123.87,158.92Z" fill="#24285b"/><line x1="174.06" y1="97.63" x2="210.29" y2="128.38" fill="none" stroke="#e6e6e6" stroke-miterlimit="10" stroke-width="7"/><line x1="247.05" y1="117.46" x2="282.63" y2="140.25" fill="none" stroke="#e6e6e6" stroke-miterlimit="10" stroke-width="7"/><path d="M99.31,117.46l-5.19-5.37a5.7,5.7,0,0,1-1.58-4.22c.13-2.74.71-7.1,3-10.37,3.56-5.14,8.28-7.08,9.46-2.64s1.42-.83,4.28,1.53,2.27,3.74,0,5-7,3.06-7.41,6.8S105,115,99.31,117.46Z" fill="#24285b"/><polyline points="198.88 172.38 198.88 142.88 218.88 117.46 247.04 117.46 247.04 81.22" fill="none" stroke="#fff" stroke-miterlimit="10" stroke-width="7"/><ellipse cx="247.05" cy="89.93" rx="17.46" ry="5.67" fill="#24285b"/><path d="M153.44,131.52s1.15-8,8.92-7.23,4.93,2.75,1.79,2.9h0a3.6,3.6,0,0,0-2.73,2.49c-.46,1.4-1.72,3.22-5.06,4.37Z" fill="#f4a28c"/><path d="M272.69,41.86a25.65,25.65,0,1,0-47.55,13.35h0L247.05,91.1l21.79-35.72h0A25.54,25.54,0,0,0,272.69,41.86ZM247.05,55.47a12.54,12.54,0,1,1,12.54-12.54A12.54,12.54,0,0,1,247.05,55.47Z" fill="#ffd200"/><polyline points="130.6 97.63 174.06 97.63 174.06 55.88" fill="none" stroke="#e6e6e6" stroke-miterlimit="10" stroke-width="7"/><rect x="256.21" y="149.8" width="63.26" height="32.1" opacity="0.1"/><polyline points="174.06 79.38 215.13 79.38 215.13 55.88" fill="none" stroke="#e6e6e6" stroke-miterlimit="10" stroke-width="7"/><rect x="264.51" y="149.8" width="77.71" height="47.5" fill="#f2f2f2"/><path d="M281.91,177.88s-1.22,6.63,4.11,5.73,2.79-3.72,2-7.36Z" fill="#a5a5a5"/><path d="M281.28,174.81l6.16-1.42s.25-4.93,0-9.87-5.15-9-8.39-5.69S277,167.91,281.28,174.81Z" fill="#a5a5a5"/><path d="M292.94,184s-3.51,4.93,1.16,6.22,3.68-2,4.44-5.2Z" fill="#a5a5a5"/><path d="M293.59,181.24l5.54,1.19s2.08-3.91,3.71-8-.76-9.28-4.66-7.8S292.76,174,293.59,181.24Z" fill="#a5a5a5"/><rect x="314" y="167.14" width="18.75" height="5.21" fill="#c9c9c9" opacity="0.67"/><rect x="314" y="176.42" width="18.75" height="5.21" fill="#c9c9c9" opacity="0.31"/></svg>