<svg id="Layer_1" data-name="Layer 1" xmlns="http://www.w3.org/2000/svg" viewBox="0 0 400 300"><title>#120_online presentation_twocolour</title><rect x="111.18" y="29.1" width="179.46" height="126.46" fill="#e6e6e6"/><path d="M159.59,115.38a27.25,27.25,0,1,1,27.26-27.25A27.28,27.28,0,0,1,159.59,115.38Zm0-47.16a19.91,19.91,0,1,0,19.92,19.91A19.93,19.93,0,0,0,159.59,68.22Z" fill="#fff"/><path d="M186.85,88.13h-7.34a19.94,19.94,0,0,0-19.92-19.91V60.88A27.28,27.28,0,0,1,186.85,88.13Z" fill="#24285b"/><path d="M159.59,115.38V108a19.94,19.94,0,0,0,19.92-19.91h7.34A27.28,27.28,0,0,1,159.59,115.38Z" fill="#ffd200"/><polygon points="227.79 143.27 226.25 155.25 265.5 155.43 262.41 143.27 227.79 143.27" fill="#24285b"/><path d="M235.4,48.91s-5.66.75-5.66,9.09,4.6,13.85,1.68,19.1S196.49,75.85,202,121.35l-26.07-20s-6.5,7.87,1.41,17.18S205.74,155,205.74,155h27.59l1.81-23.69L241,69.85l.58-16.25Z" opacity="0.08"/><path d="M231.42,74.6s-27.13,1.81-21.4,51l-27.78-22L177.49,108s27.67,48.3,48,29.43Z" fill="#177bef"/><path d="M231.42,74.6s-27.13,1.81-21.4,51l-27.78-22L177.49,108s27.67,48.3,48,29.43Z" opacity="0.08"/><path d="M237.79,73.48l8.56.28s26.39,1.84,30.39,17.34-14.33,52.17-14.33,52.17H227.8S197.84,76.12,237.79,73.48Z" fill="#177bef"/><rect x="25.41" y="124.71" width="11.14" height="20.28" fill="#ffd200"/><path d="M259.51,85.37S244,90,249.49,106.43s.6,36-11.7,36.84h24.62l11.67-31.92Z" opacity="0.08"/><path d="M255.84,93.39c-.33-9.53,11.83-14,17.69-6.46,3.3,4.23,5.65,10,5.32,17.92-1,23.75-7.18,50.4-7.18,50.4l-10.83.23s2.92-23.46-2-41.17A90,90,0,0,1,255.84,93.39Z" fill="#177bef"/><path d="M255.84,93.39c-.33-9.53,11.83-14,17.69-6.46,3.3,4.23,5.65,10,5.32,17.92-1,23.75-7.18,50.4-7.18,50.4l-10.83.23s2.92-23.46-2-41.17A90,90,0,0,1,255.84,93.39Z" fill="#fff" opacity="0.46"/><path d="M298.69,165.35,270,130.55l-6.72,4.57s19.88,44.18,29.19,44.33S298.69,165.35,298.69,165.35Z" fill="#177bef"/><path d="M298.69,165.35,270,130.55l-6.72,4.57s19.88,44.18,29.19,44.33S298.69,165.35,298.69,165.35Z" opacity="0.08"/><path d="M74.78,155.52,56,179.88,42.41,140.64s-5-4.25-8.33-.75,5,6.16,5,6.16-2,45.32,15,49.33C67.3,198.49,99,181,96.19,160.89,94.76,150.48,81.2,147.2,74.78,155.52Z" fill="#f4a28c"/><ellipse cx="202.6" cy="265.51" rx="170.5" ry="13.38" fill="#e6e6e6" opacity="0.45"/><path d="M237.52,55.06a29.16,29.16,0,0,0-.55,7.83,2.37,2.37,0,0,0,2.68,2,5.25,5.25,0,0,0,4.54-3.43l1.89-3.94a4.25,4.25,0,0,0-1.33-4.72C242.33,50.62,238,52.21,237.52,55.06Z" fill="#f4a28c"/><polygon points="245.74 58.27 246.35 73.76 237.79 73.48 240.78 62.33 245.74 58.27" fill="#f4a28c"/><path d="M238.66,55.39a19,19,0,0,0,4.36.18,3.94,3.94,0,0,0-.51,4.3,3.21,3.21,0,0,0,3.7,1.72l.64-6A4.84,4.84,0,0,0,244.94,51a19.26,19.26,0,0,0-1.9-1.22c-1.66-.9-4.34-.05-5.75-1.4a1.14,1.14,0,0,0-1.89.53c-.49,1.8-.5,4.72,1.86,6A4.27,4.27,0,0,0,238.66,55.39Z" fill="#24285b"/><path d="M242,59.67s.25-1.81,1.59-1.51,1,2.91-.88,2.94Z" fill="#f4a28c"/><path d="M237.06,58l-1.52,1.66a.75.75,0,0,0,.33,1.23l1.75.55Z" fill="#f4a28c"/><path d="M240,64.74A5.61,5.61,0,0,0,243,63.43s-.46,2.8-3.88,5.21Z" fill="#ce8172" opacity="0.31"/><path d="M286.57,250.72s-.05,3.94-3.13,5.3-2.84,4.74.29,4.57,9.21-6.37,9.21-6.37l-2.26-5.71Z" fill="#177bef"/><path d="M298.69,209.34s-18.35.81-16.35,13.26,10.09,25.91,10.09,25.91l-7.05,3s-14-16.08-15.38-35.91S296.71,200.13,298.69,209.34Z" fill="#24285b"/><path d="M298.69,209.34s-18.35.81-16.35,13.26,10.09,25.91,10.09,25.91l-7.05,3s-14-16.08-15.38-35.91S296.71,200.13,298.69,209.34Z" opacity="0.08"/><path d="M271.83,251.57s-.06,4-3.13,5.3-2.84,4.75.29,4.57,9.21-6.36,9.21-6.36l-2.26-5.71Z" fill="#177bef"/><rect x="308.76" y="214.88" width="4.14" height="35.71" fill="#ffd200"/><rect x="308.76" y="214.88" width="4.14" height="35.71" fill="#fff" opacity="0.46"/><path d="M324.55,128.32s3.8-20.42,22.13-11.18c13.52,6.81.32,61.13-7.56,89.21a22.88,22.88,0,0,1-22,16.7H291.22c-7.9,0-9.31-11.27-1.66-13.23l.46-.11c4.45-1,9.68-1.84,14.45-2.47a17.66,17.66,0,0,0,15.32-16.17Z" fill="#ffd200"/><polygon points="308.76 250.59 293.93 262.28 326.93 262.28 312.9 250.59 308.76 250.59" fill="#ffd200"/><polygon points="308.76 250.59 293.93 262.28 326.93 262.28 312.9 250.59 308.76 250.59" opacity="0.08"/><path d="M309.27,105.55a29.27,29.27,0,0,0,1,7.78,2.38,2.38,0,0,0,3,1.47,5.25,5.25,0,0,0,3.76-4.27l1.07-4.23a4.26,4.26,0,0,0-2.24-4.37C313.1,100.24,309.13,102.67,309.27,105.55Z" fill="#f4a28c"/><polygon points="317.96 107.06 321.65 122.11 313.22 123.55 313.92 112.02 317.96 107.06" fill="#f4a28c"/><path d="M313.66,114.54a5.59,5.59,0,0,0,2.62-1.87s.11,2.83-2.76,5.88Z" fill="#ce8172" opacity="0.31"/><path d="M320,120.3h0a30.46,30.46,0,0,0-28.29,16.6,42.24,42.24,0,0,0-3.63,10.95c-4.6,23.79,8.52,45.15,8.52,45.15l27.06.23S359.44,124.32,320,120.3Z" fill="#177bef"/><path d="M323.66,193.23s-.37,15.48-10.85,16.82-34.47-6.74-37.47,6.33,3,33.85,3,33.85L271,252.28s-16.41-31.42-6.75-46.32,32.35-13,32.35-13Z" fill="#24285b"/><path d="M326.61,137.47s6.86,19.17-5,29.58S303,178.75,309,193.23L296.6,193s-6.48-11.8-7.79-20.17S326.61,137.47,326.61,137.47Z" opacity="0.08"/><rect x="128.3" y="195.36" width="6.72" height="67.26" fill="#a5a5a5"/><rect x="267.36" y="195.36" width="6.72" height="67.26" fill="#a5a5a5"/><rect x="121.53" y="184.83" width="158.76" height="17.71" fill="#e6e6e6"/><polygon points="218.57 185.27 210.02 153.4 214.18 152.51 222.24 180.41 245.57 182.41 245.57 185.27 218.57 185.27" fill="#ffd200"/><path d="M124.34,147.89s12.82,9.62,18.31,23.13a11,11,0,0,1-10.12,15.24l-15,.1Z" fill="#f4a28c"/><polygon points="109.41 134.9 108.25 141.62 102.19 142.06 105.88 131.31 109.41 134.9" fill="#f4a28c"/><path d="M107.29,125a4,4,0,0,1,6.41,2.17c.81,3.08,1.38,7.58-2.19,8-5.47.56-6.43-6.49-6.43-6.49A7.37,7.37,0,0,1,107.29,125Z" fill="#f4a28c"/><path d="M108.34,130s-.56-1.41-1.68-.44.37,2.53,1.25,2.21S108.34,130,108.34,130Z" fill="#f4a28c"/><path d="M86.09,145.32s14.58-8.09,27.55-3.25c23.62,8.8,22.32,24.64,5.74,70l-21.75.12Z" fill="#177bef"/><path d="M108.4,140.77s-1.41,3.45,1,13.5S124.34,198,124.34,198l-5,14.09h-7.91L87.14,144.79S98.14,139.08,108.4,140.77Z" opacity="0.08"/><path d="M100.82,138.14a8.84,8.84,0,0,0,1.39-8.16,7.68,7.68,0,0,1,1.77-7.62c5.28-6.26,12.83-1.84,10.33,1.72s-3.87,5.18-3.87,5.18,9.12,9.58,4.36,15.43C110.57,149.89,93.29,147.7,100.82,138.14Z" fill="#24285b"/><polygon points="66.15 232.25 77.55 255.22 81.26 254.49 74.17 228.28 66.15 232.25" fill="#f4a28c"/><path d="M77.25,254.44s-.77,3.33-3.26,4.36-1.22,4.65,2.54,2.44a25.26,25.26,0,0,0,3.32-2.33,7.07,7.07,0,0,1,3.36-1.46,1.16,1.16,0,0,0,.9-1c.5-1.84-3.66-3.55-3.66-3.55Z" fill="#177bef"/><polygon points="82.32 232.25 93.72 255.22 97.43 254.49 90.34 228.28 82.32 232.25" fill="#f4a28c"/><path d="M93.42,254.44s-.76,3.33-3.26,4.36-1.22,4.65,2.54,2.44A25.26,25.26,0,0,0,96,258.91a7.07,7.07,0,0,1,3.36-1.46,1.18,1.18,0,0,0,.91-1c.49-1.84-3.67-3.55-3.67-3.55Z" fill="#177bef"/><path d="M72.7,204.6s-17,6.09-14.77,17.14,10.25,28.42,10.25,28.42l34.56-2.1s-8.28-30.34,9.47-31.18l2.35-6.11Z" fill="#24285b"/><path d="M162.69,175.52s-7.32-2-8.91-8.81c0,0,11.34-2.29,11.66,9.41Z" fill="#177bef" opacity="0.58"/><path d="M163.58,174.8s-5.11-8.09-.61-15.64c0,0,8.62,5.47,4.79,15.65Z" fill="#177bef" opacity="0.73"/><path d="M164.9,174.8s2.7-8.54,10.87-10.15c0,0,1.53,5.54-5.29,10.17Z" fill="#177bef"/><polygon points="159.59 174.61 161.08 184.76 170.42 184.8 171.8 174.66 159.59 174.61" fill="#24285b"/><rect x="100.12" y="216.88" width="4.14" height="35.71" fill="#ffd200"/><rect x="100.12" y="216.88" width="4.14" height="35.71" fill="#fff" opacity="0.46"/><polygon points="100.52 252.59 85.69 264.28 118.69 264.28 104.66 252.59 100.52 252.59" fill="#ffd200"/><polygon points="100.52 252.59 85.69 264.28 118.69 264.28 104.66 252.59 100.52 252.59" opacity="0.08"/><path d="M111.92,210.77s4.47-62.08-22-66.87-35.3,18-19.81,66.87Z" fill="#ffd200"/><path d="M70.08,210.77s1.23,8,5.23,10.85,50.48,8.57,53.73,1.06c2.43-5.61-5.25-11.32-17.12-11.91Z" fill="#ffd200"/><path d="M311.05,106.38s-.27,9.19,5.53,7.78,2.64-8.59,2.64-8.59-.21-6.08-4.6-6.72S304,98.46,304.17,101,306.11,108.07,311.05,106.38Z" fill="#24285b"/><path d="M310.33,125.37A11.42,11.42,0,0,1,323.82,130c2.4,3.85,3.84,9.4-.16,16.1-7.92,13.25-13.17,45.71-79.42,38.73v-8.47s43.38-3,49.69-19.73C299.25,142.5,298.79,129.43,310.33,125.37Z" fill="#177bef"/><path d="M310.33,125.37A11.42,11.42,0,0,1,323.82,130c2.4,3.85,3.84,9.4-.16,16.1-7.92,13.25-13.17,45.71-79.42,38.73v-8.47s43.38-3,49.69-19.73C299.25,142.5,298.79,129.43,310.33,125.37Z" fill="#fff" opacity="0.46"/><path d="M244.24,179.6s-12.5-1.54-10.75,5.23h10.75Z" fill="#f4a28c"/><path d="M267.92,131.94s-5.5-8.16-9.94-3.64,6.34,6.32,6.34,6.32Z" fill="#f4a28c"/><path d="M160.19,79.31c.49,0,.64.17.64.66v1a4.7,4.7,0,0,1,3.87,2.92c.25.51.14.78-.42,1l-1,.47c-.49.23-.72.12-1-.38a2.64,2.64,0,0,0-2.7-1.62c-1.79,0-2.61.52-2.61,1.72a1.59,1.59,0,0,0,1.46,1.41,10.19,10.19,0,0,0,1.51.23,9.94,9.94,0,0,1,2.8.55A3.79,3.79,0,0,1,164,88a4.07,4.07,0,0,1,1.12,3c0,2.29-1.54,3.85-4.25,4.25v1.1c0,.48-.15.65-.64.65H159c-.49,0-.66-.17-.66-.65V95.22a4.76,4.76,0,0,1-4.2-3.24.69.69,0,0,1,.48-1l1-.38c.53-.18.76-.06,1,.47a2.74,2.74,0,0,0,2.84,1.77c1.94,0,2.9-.61,2.9-1.86a1.28,1.28,0,0,0-.9-1.3,7.1,7.1,0,0,0-2.08-.4,9.44,9.44,0,0,1-2.82-.61,3.73,3.73,0,0,1-1.22-.7,3.81,3.81,0,0,1-1.14-2.86c0-2.27,1.43-3.79,4.12-4.14V80c0-.49.17-.66.66-.66Z" fill="#a5a5a5"/><rect x="140.99" y="124.71" width="38.51" height="17.29" fill="#a5a5a5" opacity="0.35"/><path d="M182.24,103.6s-5.79-9-9-6.5S177.49,108,177.49,108Z" fill="#f4a28c"/><rect x="268.6" y="21.1" width="49.9" height="36.9" fill="#ffd200"/><polygon points="286.25 31.77 286.25 48.06 304.17 38.77 286.25 31.77" fill="#fff"/><circle cx="124.87" cy="41.74" r="4" fill="#24285b"/><circle cx="136.77" cy="41.74" r="4" fill="#177bef"/><circle cx="147.98" cy="41.74" r="4" fill="#ffd200"/></svg>