<svg id="Layer_1" data-name="Layer 1" xmlns="http://www.w3.org/2000/svg" viewBox="0 0 400 300"><title>#125_team presentation_twocolour</title><line x1="203.77" y1="180.74" x2="203.77" y2="206.61" fill="none" stroke="#c9c9c9" stroke-miterlimit="10" stroke-width="2"/><circle cx="203.77" cy="211.75" r="5.14" fill="none" stroke="#c9c9c9" stroke-miterlimit="10" stroke-width="2"/><rect x="105.59" y="44.67" width="196.35" height="150.9" fill="#e6e6e6"/><rect x="105.59" y="44.67" width="196.35" height="22.04" fill="#c9c9c9"/><ellipse cx="200.98" cy="260.28" rx="165.67" ry="10.73" fill="#e6e6e6" opacity="0.45"/><path d="M118,245.81s0,3.76,3,5.06,2.71,4.53-.28,4.36-8.8-6.08-8.8-6.08l2.16-5.46Z" fill="#177bef"/><path d="M106.42,206.26s17.54.78,15.63,12.67-9.65,24.76-9.65,24.76l6.74,2.82s13.42-15.36,14.69-34.31S108.31,197.47,106.42,206.26Z" fill="#24285b"/><path d="M106.42,206.26s17.54.78,15.63,12.67-9.65,24.76-9.65,24.76l6.74,2.82s13.42-15.36,14.69-34.31S108.31,197.47,106.42,206.26Z" opacity="0.08"/><path d="M132.09,246.62s0,3.77,3,5.07,2.71,4.53-.28,4.36S126,250,126,250l2.16-5.46Z" fill="#177bef"/><rect x="92.84" y="211.56" width="3.96" height="34.12" transform="translate(189.64 457.24) rotate(-180)" fill="#ffd200"/><rect x="92.84" y="211.56" width="3.96" height="34.12" transform="translate(189.64 457.24) rotate(-180)" fill="#fff" opacity="0.46"/><path d="M81.71,128.86s-3.63-19.52-21.15-10.69c-12.91,6.51-.3,58.41,7.23,85.24a21.86,21.86,0,0,0,21.06,16h24.71c7.55,0,8.9-10.77,1.58-12.63l-.43-.11c-4.26-1-9.26-1.76-13.81-2.36a16.86,16.86,0,0,1-14.64-15.45Z" fill="#ffd200"/><polygon points="96.8 245.68 110.96 256.85 79.43 256.85 92.84 245.68 96.8 245.68" fill="#ffd200"/><polygon points="96.8 245.68 110.96 256.85 79.43 256.85 92.84 245.68 96.8 245.68" opacity="0.08"/><path d="M91.86,102.17A28.12,28.12,0,0,1,95,109a2.28,2.28,0,0,1-1.7,2.74,5,5,0,0,1-5.22-1.53l-3-2.86a4.05,4.05,0,0,1-.43-4.67C86,99.84,90.49,99.77,91.86,102.17Z" fill="#f4a28c"/><polygon points="86.65 106.39 86.06 121.19 94.24 120.93 91.38 110.27 86.65 106.39" fill="#f4a28c"/><path d="M134.29,187.87s7.79.74,6.19,5.25-7.24-.82-7.24-.82Z" fill="#f4a28c"/><path d="M134.29,187.87s7.79.74,6.19,5.25-7.24-.82-7.24-.82Z" opacity="0.08"/><path d="M91,102.85a18.11,18.11,0,0,1-3.84,1.65A3.76,3.76,0,0,1,89,108.16a3.06,3.06,0,0,1-2.71,2.8l-2.63-5.17a4.62,4.62,0,0,1,.16-4.72,17.24,17.24,0,0,1,1.28-1.74C86.3,98,89,97.82,89.79,96.12A1.09,1.09,0,0,1,91.65,96c1,1.45,2.06,4,.39,6A4.06,4.06,0,0,1,91,102.85Z" fill="#24285b"/><path d="M89.4,107.82s-.84-1.53-1.94-.8.1,2.93,1.79,2.32Z" fill="#f4a28c"/><path d="M93.27,104.64l1.92,1a.73.73,0,0,1,.12,1.22l-1.38,1.08Z" fill="#f4a28c"/><path d="M80.57,131.37A10.55,10.55,0,0,1,100,129.16c.27.49.53,1,.78,1.55,3.81,8,3.26,23,2.28,33.27a14.17,14.17,0,0,0,9.39,14.69l22.15,7.81-1.05,6.57-30.62-6a22.41,22.41,0,0,1-16.72-14.37C82,161,77.11,143.41,80.57,131.37Z" fill="#177bef"/><path d="M80.57,131.37A10.55,10.55,0,0,1,100,129.16c.27.49.53,1,.78,1.55,3.81,8,3.26,23,2.28,33.27a14.17,14.17,0,0,0,9.39,14.69l22.15,7.81-1.05,6.57-30.62-6a22.41,22.41,0,0,1-16.72-14.37C82,161,77.11,143.41,80.57,131.37Z" opacity="0.08"/><path d="M92.11,112.57a5.29,5.29,0,0,1-2.81-1.25s.43,2.67,3.7,5Z" fill="#ce8172" opacity="0.31"/><path d="M86.06,121.19l8.18-.26s17.93,3.86,22.32,26.58-8.15,43.14-8.15,43.14l-25.85.22S48.38,125,86.06,121.19Z" fill="#177bef"/><path d="M81.85,130.9s-12.27,6.1-6.1,33.6c4.52,20.18,12.47,26.37,12.47,26.37l14-.44-7-34.53Z" opacity="0.08"/><polygon points="146.86 199.48 162.49 167.23 158.24 165.44 143.94 193.54 118.66 190.91 118.07 193.96 146.86 199.48" fill="#ffd200"/><path d="M82.56,190.87s.35,14.8,10.37,16.07,32.94-6.43,35.8,6.05-2.84,32.35-2.84,32.35l7,1.95s15.69-30,6.45-44.25-30.91-12.39-30.91-12.39Z" fill="#24285b"/><path d="M79.84,134.78a10.55,10.55,0,0,1,19.44-2.2c.26.49.52,1,.78,1.55,3.8,8.05,3.25,23,2.28,33.27a14.14,14.14,0,0,0,9.39,14.68l22.14,7.82-1.05,6.57-30.61-6a22.44,22.44,0,0,1-16.72-14.38C81.27,164.42,76.38,146.83,79.84,134.78Z" fill="#177bef"/><path d="M79.84,134.78a10.55,10.55,0,0,1,19.44-2.2c.26.49.52,1,.78,1.55,3.8,8.05,3.25,23,2.28,33.27a14.14,14.14,0,0,0,9.39,14.68l22.14,7.82-1.05,6.57-30.61-6a22.44,22.44,0,0,1-16.72-14.38C81.27,164.42,76.38,146.83,79.84,134.78Z" fill="#fff" opacity="0.46"/><path d="M133.65,191.27s8,1.51,6.41,6-7.24-.82-7.24-.82Z" fill="#f4a28c"/><path d="M273.46,246.62s0,3.77-3,5.07-2.71,4.53.28,4.36,8.8-6.08,8.8-6.08l-2.16-5.46Z" fill="#177bef"/><path d="M250.73,247.1s-2.73,2.59-5.71,1.4-5.14,1.22-2.93,3.24,10.5,2.06,10.5,2.06l2.39-5.36Z" fill="#177bef"/><rect x="308.75" y="211.56" width="3.96" height="34.12" fill="#ffd200"/><rect x="308.75" y="211.56" width="3.96" height="34.12" fill="#fff" opacity="0.46"/><path d="M323.84,128.86s3.63-19.52,21.15-10.69c12.91,6.51.3,58.41-7.23,85.24a21.86,21.86,0,0,1-21.06,16H292c-7.55,0-8.9-10.77-1.58-12.63l.43-.11c4.26-1,9.26-1.76,13.81-2.36a16.87,16.87,0,0,0,14.64-15.45Z" fill="#ffd200"/><polygon points="308.75 245.68 294.58 256.85 326.12 256.85 312.71 245.68 308.75 245.68" fill="#ffd200"/><polygon points="308.75 245.68 294.58 256.85 326.12 256.85 312.71 245.68 308.75 245.68" opacity="0.08"/><path d="M222.28,143.83A29.74,29.74,0,1,1,252,114.1,29.77,29.77,0,0,1,222.28,143.83Zm0-51.46A21.73,21.73,0,1,0,244,114.1,21.74,21.74,0,0,0,222.28,92.37Z" fill="#fff"/><path d="M252,114.1h-8a21.75,21.75,0,0,0-21.73-21.73v-8A29.77,29.77,0,0,1,252,114.1Z" fill="#24285b"/><path d="M222.28,143.83v-8A21.75,21.75,0,0,0,244,114.1h8A29.77,29.77,0,0,1,222.28,143.83Z" fill="#ffd200"/><path d="M222.94,104.47c.53,0,.69.19.69.72v1.12a5.14,5.14,0,0,1,4.22,3.19c.28.55.16.85-.46,1.13l-1.12.5c-.53.26-.78.14-1.08-.41a2.89,2.89,0,0,0-2.94-1.77c-1.95,0-2.85.58-2.85,1.88a1.74,1.74,0,0,0,1.59,1.54,13.12,13.12,0,0,0,1.65.26,10.59,10.59,0,0,1,3.05.59,4.24,4.24,0,0,1,1.36.74,4.42,4.42,0,0,1,1.21,3.21c0,2.5-1.67,4.2-4.63,4.64V123c0,.53-.16.72-.69.72h-1.27c-.52,0-.71-.19-.71-.72v-1.17a5.24,5.24,0,0,1-4.59-3.53.75.75,0,0,1,.53-1.06l1.12-.41c.58-.21.83-.07,1.08.5a3,3,0,0,0,3.1,1.93c2.12,0,3.17-.66,3.17-2a1.4,1.4,0,0,0-1-1.42,7.47,7.47,0,0,0-2.27-.44,10.24,10.24,0,0,1-3.08-.66,4.43,4.43,0,0,1-1.33-.76,4.18,4.18,0,0,1-1.24-3.13c0-2.48,1.56-4.13,4.5-4.52v-1.12c0-.53.19-.72.71-.72Z" fill="#a5a5a5"/><path d="M246.35,107.49s-9.24-1.82-7.6,8.39,5,42.74,21.75,49.56,25.59,17.05,16.25,21.31-30.5-13.11-33.75,8.82l56.5.6L310,167.62l-21.61-15.85L267.5,150Z" opacity="0.08"/><path d="M313.69,102.17a28.12,28.12,0,0,0-3.15,6.8,2.27,2.27,0,0,0,1.7,2.74,5,5,0,0,0,5.22-1.53l3-2.86a4.05,4.05,0,0,0,.43-4.67C319.5,99.84,315.06,99.77,313.69,102.17Z" fill="#f4a28c"/><polygon points="318.9 106.39 319.49 121.19 311.31 120.93 314.17 110.27 318.9 106.39" fill="#f4a28c"/><path d="M309.35,208.86s-33,6-53,40.68l-7.21-2.78s13.79-41,43-45S309.35,208.86,309.35,208.86Z" fill="#24285b"/><path d="M309.35,208.86s-33,6-53,40.68l-7.21-2.78s13.79-41,43-45S309.35,208.86,309.35,208.86Z" opacity="0.08"/><path d="M312.28,104.64l-1.92,1a.73.73,0,0,0-.13,1.22l1.38,1.08Z" fill="#f4a28c"/><path d="M315.59,129.38c-12.42,3.8-27.11,16.72-37.29,14.62-15.14-3.11-24.21-28.88-24.21-28.88S252,105.47,248,104.64s-.56,5.53-.56,5.53-4.55,3.41,0,7.87c14.8,70.09,52.73,42.52,70.57,33.18a44.4,44.4,0,0,0,6.74-4.23C333.54,140.18,326.22,126.13,315.59,129.38Z" fill="#f4a28c"/><path d="M315.59,129.38c-12.42,3.8-27.11,16.72-37.29,14.62-15.14-3.11-24.21-28.88-24.21-28.88S252,105.47,248,104.64s-.56,5.53-.56,5.53-4.55,3.41,0,7.87c14.8,70.09,52.73,42.52,70.57,33.18a44.4,44.4,0,0,0,6.74-4.23C333.54,140.18,326.22,126.13,315.59,129.38Z" opacity="0.08"/><path d="M313.44,112.57a5.29,5.29,0,0,0,2.81-1.25s-.43,2.67-3.7,5Z" fill="#ce8172" opacity="0.31"/><path d="M319.49,121.19l-8.18-.26s-17.93,3.86-22.32,26.58,8.14,43.14,8.14,43.14l25.86.22S357.17,125,319.49,121.19Z" fill="#177bef"/><path d="M308.75,132.43s-13,11.07-11.25,28.32-7.72,11-7.72,11,2.08,8.67,3.4,10.72,24.88-25,24.88-25Z" opacity="0.08"/><path d="M323,190.87s-.36,16.36-10.37,17.63-32.94-8-35.81,4.49,2.85,32.35,2.85,32.35l-7,1.95s-15.68-30-6.45-44.25,30.91-12.39,30.91-12.39Z" fill="#24285b"/><path d="M313.69,102.17l-2.38-8.92,15,7.2-7.24,10.87-1-1.71.12-.9a5.91,5.91,0,0,0-4-6.4Z" fill="#24285b"/><path d="M316.76,106.44s1.91-.84,3-.11.24,3.88-3.52,2.07Z" fill="#f4a28c"/><path d="M306.92,138c3.3-10.62,19-8.75,19.71,2.34a45.9,45.9,0,0,1-.3,8c-2.33,20-.91,66.87-67.16,39.62l1.33-7.13s26.4,7,37.5-3.74C305.47,169.77,303.06,150.35,306.92,138Z" fill="#f4a28c"/><path d="M302.67,160.17l24,3.37s9-29.37-7.87-34.37S302.67,160.17,302.67,160.17Z" fill="#177bef"/><path d="M302.67,160.17l24,3.37s9-29.37-7.87-34.37S302.67,160.17,302.67,160.17Z" fill="#fff" opacity="0.46"/><path d="M260.5,180.74s-11.83-.41-10,4.59,8.67,2.54,8.67,2.54Z" fill="#f4a28c"/><rect x="203.77" y="155.9" width="40.24" height="17.43" fill="#177bef"/><rect x="122.11" y="90.47" width="56.55" height="16.14" fill="#fff"/><rect x="157.67" y="90.47" width="21" height="16.14" fill="#24285b"/><rect x="122.11" y="116.76" width="56.55" height="6.42" fill="#c9c9c9"/><rect x="122.11" y="131.3" width="56.55" height="6.42" fill="#c9c9c9" opacity="0.57"/><path d="M57.07,247.82s-8.52-2.33-10.37-10.25c0,0,13.19-2.67,13.57,11Z" fill="#177bef" opacity="0.58"/><path d="M58.11,247s-6-9.41-.71-18.2c0,0,10,6.37,5.57,18.22Z" fill="#177bef" opacity="0.73"/><path d="M59.64,247s3.15-9.93,12.65-11.81c0,0,1.78,6.45-6.15,11.84Z" fill="#177bef"/><polygon points="53.47 246.76 55.2 258.57 66.07 258.61 67.67 246.82 53.47 246.76" fill="#24285b"/></svg>