<svg id="Layer_1" viewBox="0 0 512 512" xmlns="http://www.w3.org/2000/svg" data-name="Layer 1"><path d="m284.64 314.771a77.866 77.866 0 0 1 67.766-77.1 77.767 77.767 0 1 0 0 154.2 77.865 77.865 0 0 1 -67.766-77.1z" fill="#d4e1f4"/><g fill="#1ae5be"><path d="m388.787 100.524a11.553 11.553 0 0 0 -2.5-3.746l-83.395-83.4a11.556 11.556 0 0 0 -8.171-3.378h-181.441a33.454 33.454 0 0 0 -33.454 33.454v316.429a33.454 33.454 0 0 0 33.454 33.454h187.257v-12h-187.257a21.454 21.454 0 0 1 -21.454-21.454v-316.429a21.454 21.454 0 0 1 21.454-21.454h177.741v55.89a30.755 30.755 0 0 0 30.755 30.755h55.889v133.211h12v-136.916a11.539 11.539 0 0 0 -.878-4.416zm-67.011-3.879a18.777 18.777 0 0 1 -18.755-18.755v-47.4l66.159 66.16z"/><path d="m286.157 130.181a6 6 0 0 0 -6-6h-154.057a6 6 0 0 0 0 12h154.057a6 6 0 0 0 6-6z"/><path d="m269.75 173a6 6 0 0 0 6 6h64.659a6 6 0 0 0 0-12h-64.659a6 6 0 0 0 -6 6z"/><path d="m238.958 280.56h-112.858a6 6 0 1 0 0 12h112.858a6 6 0 1 0 0-12z"/><path d="m238.958 332.686h-112.858a6 6 0 1 0 0 12h112.858a6 6 0 1 0 0-12z"/><path d="m144.669 240.313c-.044 0-.086-.007-.13-.007s-.086.006-.13.007a12.446 12.446 0 0 1 -12.3-12.429 6 6 0 0 0 -12 0 24.478 24.478 0 0 0 18.435 23.688v5.715a6 6 0 0 0 12 0v-5.715a24.435 24.435 0 0 0 -6-48.123 12.435 12.435 0 1 1 12.436-12.435 6 6 0 0 0 12 0 24.478 24.478 0 0 0 -18.436-23.688v-4.876a6 6 0 0 0 -12 0v4.876a24.436 24.436 0 0 0 6 48.123 12.432 12.432 0 0 1 .13 24.864z"/><path d="m220.991 178.579a12.449 12.449 0 0 1 12.435 12.435 6 6 0 0 0 12 0 24.478 24.478 0 0 0 -18.435-23.688v-4.876a6 6 0 0 0 -12 0v4.876a24.436 24.436 0 0 0 6 48.123 12.432 12.432 0 0 1 .131 24.864c-.044 0-.087-.007-.131-.007s-.086.006-.13.007a12.446 12.446 0 0 1 -12.3-12.429 6 6 0 0 0 -12 0 24.478 24.478 0 0 0 18.435 23.688v5.715a6 6 0 0 0 12 0v-5.715a24.436 24.436 0 0 0 -6-48.123 12.435 12.435 0 1 1 0-24.87z"/><path d="m136.26 91.562 1.994-7.329h12.37l1.993 7.329c.352 1.231 1.524 1.7 2.99 1.7 2.521 0 5.863-1.583 5.863-3.752a3 3 0 0 0 -.118-.645l-10.963-35.765c-.644-2.052-3.283-3.049-5.98-3.049s-5.335 1-5.979 3.049l-10.9 35.762a3.057 3.057 0 0 0 -.117.645c0 2.169 3.342 3.752 5.863 3.752 1.46.003 2.633-.466 2.984-1.697zm8.149-30.076 4.279 15.714h-8.558z"/><path d="m169.271 50.406c-2.346 0-4.574.821-4.574 2.755v26.617c0 10.084 6.449 13.836 14.774 13.836 8.266 0 14.773-3.752 14.773-13.836v-26.617c0-1.934-2.345-2.755-4.572-2.755-2.345 0-4.573.821-4.573 2.755v26.617c0 3.986-2.111 5.862-5.628 5.862s-5.629-1.876-5.629-5.862v-26.617c0-1.934-2.342-2.755-4.571-2.755z"/><path d="m214.766 93.262c8.091 0 14.423-3.752 14.423-13.836v-15.184c0-10.084-6.332-13.836-14.423-13.836h-10.376c-2.4 0-3.987 1.29-3.987 2.755v37.345c0 1.466 1.584 2.756 3.987 2.756zm-5.217-34.883h5.217c3.283 0 5.277 1.876 5.277 5.863v15.184c0 3.987-1.994 5.863-5.277 5.863h-5.217z"/><path d="m244.141 90.448v-37.287c0-1.934-2.287-2.755-4.573-2.755s-4.568.821-4.568 2.755v37.287c0 1.876 2.286 2.814 4.572 2.814s4.569-.938 4.569-2.814z"/><path d="m263.2 93.262c2.287 0 4.574-.938 4.574-2.814v-31.834h8.089c1.76 0 2.756-1.935 2.756-4.163 0-1.934-.821-4.045-2.756-4.045h-25.33c-1.934 0-2.755 2.111-2.755 4.045 0 2.228 1 4.163 2.755 4.163h8.091v31.834c0 1.876 2.286 2.814 4.576 2.814z"/><path d="m275.75 216.229h64.659a6 6 0 0 0 0-12h-64.659a6 6 0 0 0 0 12z"/></g><path d="m252.64 314.771a89.879 89.879 0 0 0 83.766 89.561v13.2h-11.95a6 6 0 0 0 -6 6v54.518a23.95 23.95 0 0 0 47.9 0v-54.516a6 6 0 0 0 -6-6h-11.95v-13.2a89.765 89.765 0 1 0 -95.766-89.561zm101.716 163.279a11.95 11.95 0 0 1 -23.9 0v-48.516h23.9zm-11.95-241.05a77.767 77.767 0 1 1 -77.766 77.768 77.857 77.857 0 0 1 77.766-77.768z" fill="#0635c9"/><path d="m328.843 338.674a6 6 0 0 0 8.484 0l39.321-39.321a6 6 0 0 0 -8.484-8.485l-35.079 35.078-16.437-16.436a6 6 0 0 0 -8.484 8.49z" fill="#0635c9"/><path d="m342.406 380.771a66 66 0 1 0 -66-66 66.075 66.075 0 0 0 66 66zm0-120a54 54 0 1 1 -54 54 54.061 54.061 0 0 1 54-54.001z" fill="#0635c9"/></svg>