<?xml version="1.0" encoding="iso-8859-1"?>
<!-- Generator: Adobe Illustrator 19.0.0, SVG Export Plug-In . SVG Version: 6.00 Build 0)  -->
<svg version="1.1" id="Capa_1" xmlns="http://www.w3.org/2000/svg" xmlns:xlink="http://www.w3.org/1999/xlink" x="0px" y="0px"
	 viewBox="0 0 512 512" style="enable-background:new 0 0 512 512;" xml:space="preserve">
<path style="fill:#FFE082;" d="M404.288,315.355c-10.091-20.949-45.995-50.027-80.747-78.123
	c-19.371-15.659-37.675-30.464-49.323-42.133l-53.333-53.333c-2.001-2.007-4.718-3.135-7.552-3.136h-96
	c-4.896,0.001-9.162,3.335-10.347,8.085l-32,128c-0.955,3.927,0.391,8.057,3.477,10.667c3.307,2.795,9.749,9.579,16.811,16.939
	c9.472,9.92,19.307,20.181,25.899,25.728c39.68,33.216,87.467,69.141,97.003,75.413c11.386,7.218,24.379,11.513,37.824,12.501
	c8.668,0.573,17.255-1.969,24.213-7.168c7.833,2.99,16.509,2.898,24.277-0.256c9.683-3.834,17.592-11.134,22.187-20.48
	c9.099,1.72,18.511,0.361,26.752-3.861c8.037-3.794,14.394-10.417,17.856-18.603c8.962,0.195,17.679-2.936,24.469-8.789
	C407.934,346.679,411.477,329.468,404.288,315.355z"/>
<path style="fill:#FFC107;" d="M436.779,295.216L394.112,169.2c-1.058-3.121-3.499-5.578-6.613-6.656
	c-0.427-0.149-42.496-14.933-84.48-33.643c-48.939-21.888-75.755-7.467-114.091,30.891c-14.592,14.571-34.411,44.117-29.269,65.771
	c2.215,9.227,9.211,16.557,18.325,19.2c23.335,8.21,49.255-0.668,62.656-21.461c5.574-0.841,10.98-2.555,16.021-5.077
	c2.133-0.917,4.459-2.005,7.659-3.285l134.613,101.888c3.632,3.3,9.046,3.696,13.12,0.96l20.523-10.283
	C436.596,304.831,438.32,299.791,436.779,295.216z"/>
<path style="fill:#2196F3;" d="M124.672,120.219C106.368,102.896,33.28,97.285,11.285,95.963c-2.915-0.083-5.753,0.947-7.936,2.88
	c-2.144,2.021-3.356,4.84-3.349,7.787v192c0,5.891,4.776,10.667,10.667,10.667h64c4.622,0.006,8.722-2.966,10.155-7.36
	C103.804,245.494,118.243,187.624,128,128.88C128.27,125.636,127.045,122.447,124.672,120.219z"/>
<path style="fill:#455A64;" d="M501.333,117.296c-45.15-1.618-90.156,5.989-132.267,22.357c-5.33,2.508-7.618,8.863-5.11,14.193
	c0.175,0.372,0.371,0.733,0.587,1.082c24.324,54.583,45.166,110.653,62.4,167.872c1.276,4.626,5.484,7.829,10.283,7.829h64
	c5.891,0.059,10.714-4.669,10.773-10.559c0-0.036,0.001-0.071,0.001-0.107v-192C512,122.072,507.224,117.296,501.333,117.296z"/>
<g>
</g>
<g>
</g>
<g>
</g>
<g>
</g>
<g>
</g>
<g>
</g>
<g>
</g>
<g>
</g>
<g>
</g>
<g>
</g>
<g>
</g>
<g>
</g>
<g>
</g>
<g>
</g>
<g>
</g>
</svg>
