<svg height="432pt" viewBox="0 -1 432 432" width="432pt" xmlns="http://www.w3.org/2000/svg"><path d="m40.316406 392.15625c-1.945312-.003906-3.519531-1.582031-3.519531-3.53125v-34.03125h-19.957031c-1.949219.003906-3.523438 1.582031-3.523438 3.527344v54.042968c0 1.949219 1.574219 3.527344 3.523438 3.53125h176.96875c1.945312-.003906 3.523437-1.582031 3.523437-3.53125v-20.007812zm0 0" fill="#d4e1f4"/><path d="m72.417969 137.722656 67.542969-54.015625v-19.621093l-92.078126 73.636718c-5.390624 5.714844-8.382812 13.28125-8.359374 21.136719v180.917969h24.53125v-180.917969c-.023438-7.855469 2.96875-15.421875 8.363281-21.136719zm0 0" fill="#d4e1f4"/><g fill="#1ae5be"><path d="m152.617188 48.960938c-2.476563-2.96875-6.890626-3.367188-9.859376-.890626l-99.746093 83.167969c-.179688.148438-.351563.304688-.511719.472657-8 8.105468-12.476562 19.042968-12.449219 30.429687v185.453125c0 3.863281 3.136719 7 7 7 3.867188 0 7-3.136719 7-7v-185.453125c-.019531-7.601563 2.921875-14.910156 8.203125-20.382813l99.46875-82.9375c2.96875-2.476562 3.371094-6.890624.894532-9.859374zm0 0"/><path d="m215.546875 194.882812c-3.867187 0-7 3.136719-7 7v72.855469c-.019531 16.246094-13.1875 29.410157-29.429687 29.425781-3.867188 0-7 3.136719-7 7v36.429688c0 3.863281 3.132812 7 7 7 3.867187 0 7-3.136719 7-7v-29.992188c20.988281-3.457031 36.398437-21.589843 36.425781-42.863281v-72.855469c0-3.863281-3.132813-7-6.996094-7zm0 0"/><path d="m46.617188 407.40625c-8.582032.1875-16.425782-4.835938-19.839844-12.714844-3.414063-7.875-1.722656-17.035156 4.28125-23.171875 6.003906-6.132812 15.125-8.027343 23.074218-4.785156 7.949219 3.242187 13.144532 10.972656 13.144532 19.558594.109375 11.527343-9.128906 20.972656-20.660156 21.113281zm0-28.230469c-2.921876-.191406-5.664063 1.417969-6.917969 4.066407-1.25 2.644531-.757813 5.785156 1.242187 7.921874 2 2.136719 5.101563 2.835938 7.824219 1.761719 2.722656-1.078125 4.511719-3.707031 4.511719-6.632812.113281-3.800781-2.863282-6.976563-6.660156-7.113281zm0 0"/><path d="m354.421875 115.65625c-4.753906-.011719-9.441406 1.125-13.660156 3.316406-12.523438-6.46875-27.867188-3.265625-36.757813 7.675782-8.890625 10.9375-8.890625 26.609374 0 37.550781 8.890625 10.9375 24.234375 14.140625 36.757813 7.671875 10.96875 5.664062 24.292969 3.972656 33.496093-4.253906 9.203126-8.226563 12.375-21.277344 7.972657-32.8125-4.402344-11.53125-15.464844-19.148438-27.808594-19.148438zm-43.085937 29.765625c0-7.414063 5.167968-13.828125 12.414062-15.40625s14.609375 2.105469 17.691406 8.851563c3.085938 6.742187 1.050782 14.726562-4.882812 19.171874-2.722656 2.054688-6.046875 3.160157-9.457032 3.152344-8.703124-.011718-15.757812-7.066406-15.765624-15.769531zm43.085937 15.769531c-.671875 0-1.347656-.042968-2.015625-.128906.070312-.109375.128906-.226562.195312-.339844.210938-.351562.414063-.710937.613282-1.070312.109375-.203125.21875-.40625.328125-.613282.199219-.394531.390625-.796874.578125-1.199218.082031-.175782.167968-.347656.242187-.527344.253907-.578125.496094-1.167969.710938-1.761719.019531-.054687.035156-.105469.054687-.160156.191406-.542969.371094-1.09375.535156-1.648437.058594-.199219.109376-.40625.164063-.613282.113281-.410156.21875-.824218.3125-1.242187.050781-.234375.097656-.46875.144531-.699219.082032-.402344.152344-.804688.21875-1.210938.035156-.234374.070313-.46875.097656-.707031.058594-.433593.101563-.867187.140626-1.300781.015624-.203125.039062-.410156.054687-.613281.042969-.640625.066406-1.285157.066406-1.929688 0-.648437-.023437-1.304687-.066406-1.953125-.011719-.207031-.035156-.410156-.050781-.617187-.039063-.441407-.082032-.882813-.136719-1.316407-.03125-.238281-.066406-.472656-.101563-.707031-.0625-.410156-.132812-.816406-.210937-1.21875-.046875-.234375-.09375-.464843-.144531-.699219-.09375-.421874-.199219-.835937-.308594-1.253906-.054688-.199218-.097656-.402344-.160156-.601562-.160156-.554688-.335938-1.101563-.527344-1.644532-.019531-.050781-.035156-.109374-.054688-.160156-.214843-.59375-.449218-1.175781-.699218-1.75-.082032-.183594-.167969-.363281-.253906-.542968-.179688-.394532-.363282-.78125-.5625-1.164063-.109376-.214844-.222657-.421875-.335938-.632813-.191406-.347656-.386719-.691406-.59375-1.03125-.070312-.117187-.128906-.242187-.199219-.355468.652344-.082032 1.308594-.121094 1.96875-.121094 8.707031 0 15.765625 7.058594 15.765625 15.765625 0 8.710937-7.058594 15.769531-15.765625 15.769531zm0 0"/></g><path d="m202.796875 340.59375h-195.796875c-3.867188 0-7 3.132812-7 7v75.585938c0 3.863281 3.132812 7 7 7h195.800781c3.863281 0 7-3.136719 7-7v-75.585938c0-3.871094-3.136719-7.003906-7.003906-7zm-7 75.585938h-181.796875v-61.585938h181.800781zm0 0" fill="#0635c9"/><path d="m388.574219 0h-204.902344c-23.972656.0273438-43.398437 19.453125-43.425781 43.425781v93.175781c0 3.867188 3.132812 7 7 7 3.867187 0 7-3.132812 7-7v-36.085937h263.753906v55.835937c-.019531 16.242188-13.183594 29.40625-29.425781 29.425782h-204.902344c-6.675781.027344-13.160156-2.242188-18.363281-6.429688-3.019532-2.417968-7.421875-1.925781-9.839844 1.089844-2.414062 3.019531-1.925781 7.425781 1.09375 9.839844 7.703125 6.140625 17.257812 9.492187 27.109375 9.5h204.902344c23.972656-.027344 43.398437-19.453125 43.425781-43.425782v-112.925781c-.027344-23.972656-19.453125-43.3984372-43.425781-43.425781zm29.425781 86.515625h-263.757812v-22.429687h263.757812zm0-36.429687h-263.757812v-6.660157c.019531-16.242187 13.183593-29.40625 29.429687-29.425781h204.898437c16.246094.019531 29.410157 13.183594 29.425782 29.425781zm0 0" fill="#0635c9"/><path d="m149.691406 211.183594.320313-5.550782 36.753906-36.753906c13.378906-13.410156 13.378906-35.125 0-48.535156l-6.441406-6.441406c-2.511719-2.515625-6.511719-2.746094-9.296875-.535156l-87.488282 69.269531c-3.027343 2.398437-3.542968 6.804687-1.140624 9.835937 2.398437 3.03125 6.800781 3.542969 9.832031 1.140625l82.601562-65.398437 2.03125 2.03125c7.921875 7.941406 7.921875 20.796875 0 28.738281l-38.636719 38.632813c-1.214843 1.214843-1.941406 2.832031-2.039062 4.546874l-.488281 8.425782c-.007813.132812-.011719.269531-.011719.40625.039062 6.394531 1.496094 12.707031 4.269531 18.472656 6.238281 13.394531 5.066407 29.070312-3.09375 41.390625-.765625 1.148437-1.175781 2.5-1.175781 3.882813v18.210937c0 3.867187 3.132812 7 7 7s7-3.132813 7-7v-16.171875c9.816406-16.152344 10.917969-36.136719 2.941406-53.269531-1.863281-3.847657-2.867187-8.054688-2.9375-12.328125zm0 0" fill="#1ae5be"/></svg>