<svg id="color" enable-background="new 0 0 24 24" height="512" viewBox="0 0 24 24" width="512" xmlns="http://www.w3.org/2000/svg"><path d="m10.5 6.25c0 .26.03.51.09.75h-6.59v10h-2v-10c0-1.1.9-2 2-2h6.5z" fill="#607d8b"/><path d="m20 9.5h2v7.5h-2z" fill="#607d8b"/><path d="m23 17h-22c-.552 0-1 .447-1 1s.448 1 1 1h22c.552 0 1-.447 1-1s-.448-1-1-1z" fill="#90a4ae"/><path d="m20 9.5v7.5h-16v-10h6.59c.32 1.36 1.49 2.38 2.91 2.49v.76c0 .93.56 1.76 1.44 2.1.26.1.53.15.81.15.63 0 1.24-.27 1.66-.73l2.08-2.27z" fill="#fafafa"/><circle cx="11" cy="11" fill="#2196f3" r="2"/><path d="m15 16.75v.25h-8v-.25c0-1.52 1.23-2.75 2.75-2.75h2.5c1.52 0 2.75 1.23 2.75 2.75z" fill="#2196f3"/><path d="m15.75 11c-.091 0-.184-.017-.272-.051-.288-.112-.478-.39-.478-.699v-2.25h-1.25c-.965 0-1.75-.785-1.75-1.75v-4.5c0-.965.785-1.75 1.75-1.75h8.5c.965 0 1.75.785 1.75 1.75v4.5c0 .965-.785 1.75-1.75 1.75h-3.42l-2.527 2.757c-.145.158-.347.243-.553.243z" fill="#ffc107"/><g fill="#fafafa"><circle cx="15.5" cy="4" r=".75"/><circle cx="18" cy="4" r=".75"/><circle cx="20.5" cy="4" r=".75"/></g></svg>