<?xml version="1.0" encoding="iso-8859-1"?>
<!-- Generator: Adobe Illustrator 19.0.0, SVG Export Plug-In . SVG Version: 6.00 Build 0)  -->
<svg version="1.1" id="Capa_1" xmlns="http://www.w3.org/2000/svg" xmlns:xlink="http://www.w3.org/1999/xlink" x="0px" y="0px"
	 viewBox="0 0 512.001 512.001" style="enable-background:new 0 0 512.001 512.001;" xml:space="preserve">
<path style="fill:#FFFFFF;" d="M466.102,463.475H45.898c-19.64,0-35.562-15.922-35.562-35.562V82.83
	c0-19.64,15.922-35.562,35.562-35.562h420.203c19.64,0,35.562,15.922,35.562,35.562v345.083
	C501.663,447.554,485.742,463.475,466.102,463.475z"/>
<path style="fill:#FFC843;" d="M501.663,120.837H10.338v-44.51c0-16.048,13.01-29.057,29.057-29.057h433.212
	c16.048,0,29.057,13.01,29.057,29.057L501.663,120.837L501.663,120.837z"/>
<path style="fill:#76FFD9;" d="M71.803,82.292h-3.002c-6.631,0-12.008-5.377-12.008-12.008V22.252
	c0-6.631,5.377-12.008,12.008-12.008h3.002c6.631,0,12.008,5.377,12.008,12.008v48.032C83.811,76.915,78.434,82.292,71.803,82.292z"
	/>
<path style="fill:#5DE0BF;" d="M70.302,55.274c-7.461,0-13.509-6.048-13.509-13.509v27.018c0,7.461,6.048,13.509,13.509,13.509
	s13.509-6.048,13.509-13.509V41.765C83.811,49.226,77.763,55.274,70.302,55.274z"/>
<path style="fill:#76FFD9;" d="M440.547,82.292h-3.002c-6.631,0-12.008-5.377-12.008-12.008V22.252
	c0-6.631,5.377-12.008,12.008-12.008h3.002c6.631,0,12.008,5.377,12.008,12.008v48.032
	C452.555,76.915,447.178,82.292,440.547,82.292z"/>
<path style="fill:#5DE0BF;" d="M439.046,55.274c-7.461,0-13.509-6.048-13.509-13.509v27.018c0,7.461,6.048,13.509,13.509,13.509
	s13.509-6.048,13.509-13.509V41.765C452.555,49.226,446.507,55.274,439.046,55.274z"/>
<circle style="fill:#FFFFFF;" cx="256.26" cy="392.26" r="112.074"/>
<circle style="fill:#E1EAF8;" cx="256.26" cy="392.26" r="66.975"/>
<circle style="fill:#FFFFFF;" cx="256.26" cy="392.26" r="16.011"/>
<path style="fill:#434C54;" d="M496.418,127.137l0.572,304.702c0.012,6.513-2.536,12.664-7.175,17.321
	c-4.639,4.657-10.781,7.229-17.294,7.241l-88.06,0.166c-4.145,0.008-7.499,3.374-7.491,7.519c0.008,4.141,3.366,7.491,7.505,7.491
	c0.005,0,0.01,0,0.015,0l88.06-0.166c21.794-0.041,39.492-17.806,39.451-39.6L511.34,79.577
	c-0.041-21.77-17.763-39.451-39.525-39.451c-0.024,0-0.052,0-0.076,0l-8.506,0.016l-0.031-16.511
	c-0.025-12.944-10.574-23.473-23.561-23.473c-12.967,0.024-23.496,10.593-23.472,23.56l0.031,16.511L94.988,40.834l-0.031-16.511
	C94.933,11.38,84.385,0.851,71.398,0.851C65.117,0.863,59.217,3.32,54.783,7.77s-6.869,10.36-6.857,16.641l0.031,16.511
	l-8.506,0.016c-10.522,0.02-20.431,4.16-27.899,11.657S-0.019,70.016,0,80.538L0.663,432.77c0.02,10.523,4.16,20.431,11.657,27.9
	c7.48,7.452,17.373,11.552,27.867,11.552c0.025,0,0.051,0,0.076,0l88.058-0.166c4.145-0.008,7.499-3.374,7.491-7.519
	c-0.008-4.141-3.366-7.491-7.505-7.491c-0.005,0-0.01,0-0.015,0l-88.058,0.166c-0.016,0-0.031,0-0.047,0
	c-6.495,0-12.629-2.547-17.274-7.176c-4.657-4.639-7.229-10.781-7.241-17.294l-0.572-304.702l-0.028-15.01L15.01,80.51
	c-0.012-6.513,2.537-12.664,7.176-17.322c4.639-4.657,10.781-7.228,17.294-7.24l8.506-0.016l0.031,16.511
	c0.024,12.943,10.573,23.472,23.516,23.472c0.005,0,0.04,0,0.045,0c6.281-0.012,12.181-2.469,16.615-6.919
	c4.434-4.45,6.869-10.36,6.857-16.641l-0.031-16.511l321.213-0.604l0.031,16.511c0.024,12.943,10.573,23.472,23.516,23.472
	c0.005,0,0.04,0,0.045,0c12.967-0.024,23.496-10.593,23.472-23.56l-0.031-16.511l8.506-0.016c0.017,0,0.031,0,0.047,0
	c13.496,0,24.49,10.968,24.516,24.47l0.061,32.522L496.418,127.137z M77.557,78.4c-1.604,1.609-3.737,2.499-6.009,2.503h-0.017
	c-4.681,0-8.497-3.809-8.506-8.49l-0.045-24.006c0-0.003,0-0.007,0-0.01c0-0.003,0-0.006,0-0.01l-0.045-24.006
	c-0.004-2.272,0.877-4.409,2.481-6.019c1.604-1.61,3.737-2.499,6.027-2.503c4.68,0,8.495,3.809,8.504,8.49l0.09,48.032
	C80.042,74.654,79.161,76.791,77.557,78.4z M445.801,77.709c-1.604,1.609-3.737,2.499-6.009,2.503h-0.017
	c-4.681,0-8.497-3.809-8.506-8.49l-0.09-48.032c-0.009-4.69,3.8-8.513,8.507-8.522c4.681,0,8.496,3.809,8.505,8.49l0.045,24.001
	c0,0.005-0.001,0.01-0.001,0.015c0,0.005,0.001,0.01,0.001,0.015l0.045,24.001C448.286,73.962,447.404,76.099,445.801,77.709z"/>
<g>
	<path style="fill:#5DE0BF;" d="M263.886,184.612c-0.005,0-0.01,0-0.015,0l-16.011,0.03c-4.145,0.008-7.499,3.374-7.491,7.519
		c0.008,4.14,3.366,7.491,7.505,7.491c0.005,0,0.01,0,0.015,0l16.011-0.03c4.145-0.008,7.499-3.374,7.491-7.519
		C271.383,187.962,268.025,184.612,263.886,184.612z"/>
	<path style="fill:#5DE0BF;" d="M263.946,224.638l-16.01,0.03c-4.145,0.008-7.499,3.374-7.491,7.519
		c0.008,4.14,3.366,7.491,7.505,7.491c0.005,0,0.01,0,0.015,0l16.01-0.03c4.145-0.008,7.499-3.374,7.491-7.519
		c-0.008-4.14-3.366-7.491-7.505-7.491C263.956,224.638,263.951,224.638,263.946,224.638z"/>
	<path style="fill:#5DE0BF;" d="M319.923,184.506c-0.005,0-0.01,0-0.015,0l-16.011,0.03c-4.145,0.008-7.499,3.374-7.491,7.519
		c0.008,4.14,3.366,7.491,7.505,7.491c0.005,0,0.01,0,0.015,0l16.011-0.03c4.145-0.008,7.499-3.374,7.491-7.519
		C327.419,187.857,324.061,184.506,319.923,184.506z"/>
	<path style="fill:#5DE0BF;" d="M319.983,224.532l-16.011,0.03c-4.145,0.008-7.499,3.374-7.491,7.519
		c0.008,4.14,3.366,7.491,7.505,7.491c0.005,0,0.01,0,0.015,0l16.011-0.03c4.145-0.008,7.499-3.374,7.491-7.519
		c-0.008-4.14-3.366-7.491-7.505-7.491C319.993,224.532,319.988,224.532,319.983,224.532z"/>
	<path style="fill:#5DE0BF;" d="M207.849,184.717c-0.005,0-0.01,0-0.015,0l-16.011,0.03c-4.145,0.008-7.499,3.374-7.491,7.519
		c0.008,4.14,3.366,7.491,7.505,7.491c0.005,0,0.01,0,0.015,0l16.011-0.03c4.145-0.008,7.499-3.374,7.491-7.519
		C215.346,188.067,211.986,184.717,207.849,184.717z"/>
	<path style="fill:#5DE0BF;" d="M207.91,224.743l-16.011,0.03c-4.145,0.008-7.499,3.374-7.491,7.519
		c0.008,4.14,3.366,7.491,7.505,7.491c0.005,0,0.01,0,0.015,0l16.011-0.03c4.145-0.008,7.499-3.374,7.491-7.519
		c-0.008-4.14-3.366-7.491-7.505-7.491C207.919,224.743,207.914,224.743,207.91,224.743z"/>
	<path style="fill:#5DE0BF;" d="M135.815,199.862l16.011-0.03c4.145-0.008,7.499-3.374,7.491-7.519
		c-0.008-4.14-3.366-7.491-7.505-7.491c-0.005,0-0.01,0-0.015,0l-16.011,0.03c-4.145,0.008-7.499,3.374-7.491,7.519
		c0.008,4.14,3.366,7.491,7.505,7.491C135.805,199.862,135.81,199.862,135.815,199.862z"/>
	<path style="fill:#5DE0BF;" d="M135.875,239.888c0.005,0,0.01,0,0.015,0l16.011-0.03c4.145-0.008,7.499-3.374,7.491-7.519
		c-0.008-4.14-3.366-7.491-7.505-7.491c-0.005,0-0.01,0-0.015,0l-16.011,0.03c-4.145,0.008-7.499,3.374-7.491,7.519
		C128.379,236.537,131.736,239.888,135.875,239.888z"/>
	<path style="fill:#5DE0BF;" d="M135.95,279.915c0.005,0,0.01,0,0.015,0l16.011-0.03c4.145-0.008,7.499-3.374,7.491-7.519
		s-3.341-7.499-7.519-7.491l-16.011,0.03c-4.145,0.008-7.499,3.374-7.491,7.519C128.454,276.564,131.812,279.915,135.95,279.915z"/>
	<path style="fill:#5DE0BF;" d="M136.027,319.94c1.971,0,3.913-0.801,5.304-2.191c1.401-1.401,2.201-3.342,2.201-5.314
		c0-1.971-0.801-3.913-2.201-5.303c-1.391-1.401-3.332-2.201-5.304-2.201c-1.971,0-3.913,0.801-5.304,2.201
		c-1.401,1.391-2.201,3.332-2.201,5.303c0,1.971,0.801,3.913,2.201,5.314C132.115,319.14,134.056,319.94,136.027,319.94z"/>
	<path style="fill:#5DE0BF;" d="M375.96,184.401c-0.005,0-0.01,0-0.015,0l-16.011,0.03c-4.145,0.008-7.499,3.374-7.491,7.519
		c0.008,4.14,3.366,7.491,7.505,7.491c0.005,0,0.01,0,0.015,0l16.011-0.03c4.145-0.008,7.499-3.374,7.491-7.519
		C383.456,187.752,380.098,184.401,375.96,184.401z"/>
	<path style="fill:#5DE0BF;" d="M376.035,224.427c-0.005,0-0.01,0-0.015,0l-16.011,0.03c-4.145,0.008-7.499,3.374-7.491,7.519
		c0.008,4.14,3.366,7.491,7.505,7.491c0.005,0,0.01,0,0.015,0l16.011-0.03c4.145-0.008,7.499-3.374,7.491-7.519
		C383.531,227.777,380.173,224.427,376.035,224.427z"/>
	<path style="fill:#5DE0BF;" d="M376.095,264.454l-16.011,0.03c-4.145,0.008-7.499,3.374-7.491,7.519
		c0.008,4.14,3.366,7.491,7.505,7.491c0.005,0,0.01,0,0.015,0l16.011-0.03c4.145-0.008,7.499-3.374,7.491-7.519
		c-0.008-4.14-3.366-7.491-7.505-7.491C376.105,264.454,376.1,264.454,376.095,264.454z"/>
	<path style="fill:#5DE0BF;" d="M383.691,311.985c0-1.971-0.801-3.913-2.201-5.303c-1.401-1.401-3.332-2.201-5.303-2.201
		c-1.981,0-3.913,0.801-5.303,2.201c-1.401,1.391-2.201,3.322-2.201,5.303s0.801,3.913,2.201,5.303
		c1.391,1.401,3.322,2.201,5.303,2.201c1.971,0,3.903-0.801,5.303-2.201C382.891,315.898,383.691,313.956,383.691,311.985z"/>
	<path style="fill:#5DE0BF;" d="M408.481,191.845c0.008,4.14,3.366,7.491,7.505,7.491c0.005,0,0.01,0,0.015,0l16.011-0.03
		c4.145-0.008,7.499-3.374,7.491-7.519c-0.008-4.14-3.366-7.491-7.505-7.491c-0.005,0-0.01,0-0.015,0l-16.011,0.03
		C411.827,184.334,408.473,187.7,408.481,191.845z"/>
	<path style="fill:#5DE0BF;" d="M416.075,239.362l16.011-0.03c4.145-0.008,7.499-3.374,7.491-7.519
		c-0.008-4.14-3.366-7.491-7.505-7.491c-0.005,0-0.01,0-0.015,0l-16.011,0.03c-4.145,0.008-7.499,3.374-7.491,7.519
		c0.008,4.14,3.366,7.491,7.505,7.491C416.066,239.362,416.07,239.362,416.075,239.362z"/>
	<path style="fill:#5DE0BF;" d="M416.136,279.388c0.005,0,0.01,0,0.015,0l16.011-0.03c4.145-0.008,7.499-3.374,7.491-7.519
		c-0.008-4.14-3.366-7.491-7.505-7.491c-0.005,0-0.01,0-0.015,0l-16.011,0.03c-4.145,0.008-7.499,3.374-7.491,7.519
		C408.639,276.037,411.997,279.388,416.136,279.388z"/>
	<path style="fill:#5DE0BF;" d="M416.211,319.414c0.005,0,0.01,0,0.015,0l16.011-0.03c4.145-0.008,7.499-3.374,7.491-7.519
		c-0.008-4.14-3.366-7.491-7.505-7.491c-0.005,0-0.01,0-0.015,0l-16.011,0.03c-4.145,0.008-7.499,3.374-7.491,7.519
		C408.714,316.064,412.072,319.414,416.211,319.414z"/>
	<path style="fill:#5DE0BF;" d="M416.286,359.441c0.005,0,0.01,0,0.015,0l16.011-0.03c4.145-0.008,7.499-3.374,7.491-7.519
		c-0.008-4.14-3.366-7.491-7.505-7.491c-0.005,0-0.01,0-0.015,0l-16.011,0.03c-4.145,0.008-7.499,3.374-7.491,7.519
		C408.79,356.09,412.148,359.441,416.286,359.441z"/>
	<path style="fill:#5DE0BF;" d="M416.362,399.467c0.005,0,0.01,0,0.015,0l16.011-0.03c4.145-0.008,7.499-3.374,7.491-7.519
		c-0.008-4.14-3.366-7.491-7.505-7.491c-0.005,0-0.01,0-0.015,0l-16.011,0.03c-4.145,0.008-7.499,3.374-7.491,7.519
		C408.865,396.117,412.223,399.467,416.362,399.467z"/>
	<path style="fill:#5DE0BF;" d="M79.778,199.967l16.011-0.03c4.145-0.008,7.499-3.374,7.491-7.519
		c-0.008-4.14-3.366-7.491-7.505-7.491c-0.005,0-0.01,0-0.015,0l-16.011,0.03c-4.145,0.008-7.499,3.374-7.491,7.519
		c0.008,4.14,3.366,7.491,7.505,7.491C79.768,199.967,79.773,199.967,79.778,199.967z"/>
	<path style="fill:#5DE0BF;" d="M79.838,239.993c0.005,0,0.01,0,0.015,0l16.011-0.03c4.145-0.008,7.499-3.374,7.491-7.519
		c-0.008-4.14-3.366-7.491-7.505-7.491c-0.005,0-0.01,0-0.015,0l-16.011,0.03c-4.145,0.008-7.499,3.374-7.491,7.519
		C72.342,236.643,75.7,239.993,79.838,239.993z"/>
	<path style="fill:#5DE0BF;" d="M79.913,280.02c0.005,0,0.01,0,0.015,0l16.011-0.03c4.145-0.008,7.499-3.374,7.491-7.519
		c-0.008-4.14-3.366-7.491-7.505-7.491c-0.005,0-0.01,0-0.015,0l-16.011,0.03c-4.145,0.008-7.499,3.374-7.491,7.519
		C72.417,276.67,75.775,280.02,79.913,280.02z"/>
	<path style="fill:#5DE0BF;" d="M79.989,320.046c0.005,0,0.01,0,0.015,0l16.011-0.03c4.145-0.008,7.499-3.374,7.491-7.519
		c-0.008-4.14-3.366-7.491-7.505-7.491c-0.005,0-0.01,0-0.015,0l-16.011,0.03c-4.145,0.008-7.499,3.374-7.491,7.519
		C72.492,316.696,75.85,320.046,79.989,320.046z"/>
	<path style="fill:#5DE0BF;" d="M80.064,360.073c0.005,0,0.01,0,0.015,0l16.011-0.03c4.145-0.008,7.499-3.374,7.491-7.519
		c-0.008-4.14-3.366-7.491-7.505-7.491c-0.005,0-0.01,0-0.015,0l-16.011,0.03c-4.145,0.008-7.499,3.374-7.491,7.519
		C72.567,356.722,75.925,360.073,80.064,360.073z"/>
	<path style="fill:#5DE0BF;" d="M80.139,400.099c0.005,0,0.01,0,0.015,0l16.011-0.03c4.145-0.008,7.499-3.374,7.491-7.519
		c-0.008-4.14-3.366-7.491-7.505-7.491c-0.005,0-0.01,0-0.015,0l-16.011,0.03c-4.145,0.008-7.499,3.374-7.491,7.519
		C72.642,396.748,76,400.099,80.139,400.099z"/>
</g>
<path style="fill:#434C54;" d="M256.26,272.684h-0.214h-0.015c-65.936,0.124-119.478,53.868-119.354,119.804
	c0.124,65.813,53.765,119.354,119.574,119.354h0.215h0.015c31.94-0.06,61.946-12.554,84.489-35.182
	c22.543-22.628,34.925-52.681,34.865-84.621C375.711,326.227,322.07,272.684,256.26,272.684z M330.337,466.066
	c-17.938,18.005-41.278,28.67-66.38,30.486l-0.016-8.239c-0.008-4.14-3.366-7.491-7.505-7.491c-0.005,0-0.01,0-0.015,0
	c-4.145,0.008-7.499,3.374-7.491,7.519l0.016,8.232c-51.68-3.589-93.19-44.96-96.974-96.608l8.233-0.016
	c4.145-0.008,7.499-3.374,7.491-7.519c-0.008-4.14-3.366-7.491-7.505-7.491c-0.005,0-0.01,0-0.015,0l-8.233,0.016
	c3.586-51.697,44.927-93.194,96.61-96.974l0.016,8.234c0.008,4.14,3.366,7.491,7.505,7.491c0.005,0,0.01,0,0.015,0
	c4.145-0.008,7.499-3.374,7.491-7.519l-0.016-8.232c51.68,3.59,93.19,44.96,96.974,96.609l-8.233,0.015
	c-4.145,0.008-7.499,3.374-7.491,7.519c0.008,4.14,3.366,7.491,7.505,7.491c0.005,0,0.01,0,0.015,0l8.238-0.015
	C358.851,424.681,348.274,448.061,330.337,466.066z"/>
<path style="fill:#5DE0BF;" d="M320.298,384.638c-0.005,0-0.01,0-0.015,0l-41.764,0.079c-2.356-6.922-7.855-12.402-14.801-14.739
	l-0.079-41.772c-0.008-4.14-3.366-7.491-7.504-7.491c-0.005,0-0.01,0-0.015,0c-4.145,0.008-7.499,3.374-7.491,7.519l0.079,41.762
	c-9.29,3.157-15.989,11.968-15.969,22.31c0.024,12.943,10.573,23.472,23.515,23.472c0.005,0,0.04,0,0.045,0
	c6.281-0.012,12.182-2.469,16.615-6.92c2.604-2.614,4.512-5.733,5.646-9.133l41.752-0.079c4.145-0.008,7.499-3.374,7.491-7.519
	C327.795,387.988,324.437,384.638,320.298,384.638z M262.281,398.266c-1.603,1.609-3.737,2.499-6.009,2.503h-0.017
	c-4.681,0-8.497-3.809-8.505-8.49c-0.009-4.69,3.8-8.513,8.507-8.522c4.681,0,8.496,3.809,8.505,8.49
	C264.765,394.52,263.885,396.657,262.281,398.266z"/>
<g>
</g>
<g>
</g>
<g>
</g>
<g>
</g>
<g>
</g>
<g>
</g>
<g>
</g>
<g>
</g>
<g>
</g>
<g>
</g>
<g>
</g>
<g>
</g>
<g>
</g>
<g>
</g>
<g>
</g>
</svg>
