<svg enable-background="new 0 0 24 24" height="512" viewBox="0 0 24 24" width="512" xmlns="http://www.w3.org/2000/svg"><path d="m23.249 13c-.14 0-.28-.039-.406-.12l-8.25-5.33c-.348-.225-.447-.689-.223-1.037.225-.348.689-.448 1.037-.223l8.25 5.33c.348.225.447.689.223 1.037-.144.222-.385.343-.631.343z" fill="#546e7a"/><path d="m.751 13c-.246 0-.487-.121-.631-.343-.225-.348-.125-.813.223-1.037l8.25-5.33c.35-.226.812-.124 1.037.223.224.348.125.812-.223 1.037l-8.25 5.33c-.126.081-.267.12-.406.12z" fill="#546e7a"/><path d="m15.001 6.169c-.246 0-.487.121-.631.343l9.51 6.145c.225-.348.125-.813-.223-1.037l-8.25-5.33c-.126-.082-.267-.121-.406-.121z" fill="#49606a"/><path d="m8.999 6.17c-.139 0-.28.039-.406.12l-8.25 5.33c-.348.225-.447.689-.223 1.037l9.51-6.145c-.144-.221-.384-.342-.631-.342z" fill="#49606a"/><path d="m12 7c-1.102 0-2-.897-2-2 0-.838.518-1.557 1.25-1.854v-2.396c0-.414.336-.75.75-.75s.75.336.75.75v3c0 .414-.336.75-.75.75-.275 0-.5.224-.5.5s.225.5.5.5.5-.224.5-.5c0-.414.336-.75.75-.75s.75.336.75.75c0 1.103-.897 2-2 2z" fill="#546e7a"/><path d="m23.25 24h-22.5c-.414 0-.75-.336-.75-.75v-11c0-.414.336-.75.75-.75h22.5c.414 0 .75.336.75.75v11c0 .414-.336.75-.75.75z" fill="#2196f3"/><path d="m12 21.5c-.414 0-.75-.336-.75-.75v-6c0-.414.336-.75.75-.75s.75.336.75.75v6c0 .414-.336.75-.75.75z" fill="#1976d2"/><path d="m12 0c-.414 0-.75.336-.75.75v2.396c-.732.297-1.25 1.016-1.25 1.854 0 1.103.897 2 2 2v-1.5c-.275 0-.5-.224-.5-.5s.225-.5.5-.5z" fill="#49606a"/><path d="m12 11.5h-11.25c-.414 0-.75.336-.75.75v11c0 .414.336.75.75.75h11.25v-2.5c-.414 0-.75-.336-.75-.75v-6c0-.414.336-.75.75-.75z" fill="#1d83d4"/><path d="m12 14c-.414 0-.75.336-.75.75v6c0 .414.336.75.75.75z" fill="#1667b7"/><g fill="#1976d2"><path d="m3.5 21.5c-.414 0-.75-.336-.75-.75v-6c0-.414.336-.75.75-.75s.75.336.75.75v6c0 .414-.336.75-.75.75z"/><path d="m7.5 21.5c-.414 0-.75-.336-.75-.75v-6c0-.414.336-.75.75-.75s.75.336.75.75v6c0 .414-.336.75-.75.75z"/><path d="m16.5 21.5c-.414 0-.75-.336-.75-.75v-6c0-.414.336-.75.75-.75s.75.336.75.75v6c0 .414-.336.75-.75.75z"/><path d="m20.5 21.5c-.414 0-.75-.336-.75-.75v-6c0-.414.336-.75.75-.75s.75.336.75.75v6c0 .414-.336.75-.75.75z"/></g><g fill="#1667b7"><path d="m7.5 14c-.414 0-.75.336-.75.75v6c0 .414.336.75.75.75z"/><path d="m3.5 14c-.414 0-.75.336-.75.75v6c0 .414.336.75.75.75z"/><path d="m16.5 14c-.414 0-.75.336-.75.75v6c0 .414.336.75.75.75z"/><path d="m20.5 14c-.414 0-.75.336-.75.75v6c0 .414.336.75.75.75z"/></g></svg>