<?xml version="1.0" encoding="iso-8859-1"?>
<!-- Generator: Adobe Illustrator 19.0.0, SVG Export Plug-In . SVG Version: 6.00 Build 0)  -->
<svg version="1.1" id="Capa_1" xmlns="http://www.w3.org/2000/svg" xmlns:xlink="http://www.w3.org/1999/xlink" x="0px" y="0px"
	 viewBox="0 0 512 512" style="enable-background:new 0 0 512 512;" xml:space="preserve">
<rect x="40.59" y="7.5" style="fill:#FFFFFF;" width="321.01" height="497"/>
<g>
	<rect x="346.54" y="7.5" style="fill:#E4EAF8;" width="15.06" height="497"/>
	<rect x="40.59" y="7.5" style="fill:#E4EAF8;" width="15.06" height="497"/>
</g>
<rect x="85.32" y="259.02" style="fill:#76FFD9;" width="231.56" height="93.56"/>
<rect x="85.32" y="305.8" style="fill:#FFC843;" width="231.56" height="46.782"/>
<rect x="85.32" y="259.02" style="fill:#FFA816;" width="57.93" height="93.56"/>
<rect x="169.39" y="77.84" style="fill:#76FFD9;" width="139.85" height="33.536"/>
<g>
	<polygon style="fill:#FFFFFF;" points="408.635,371.131 427.716,418.407 445.221,371.131 	"/>
	<path style="fill:#FFFFFF;" d="M438.178,102.146h-22.499V77.759c0-6.213,5.037-11.249,11.249-11.249l0,0
		c6.213,0,11.249,5.037,11.249,11.249v24.387H438.178z"/>
</g>
<path style="fill:#00C395;" d="M445.218,101.694v269.434h-36.581V101.694c0-2.795,2.266-5.062,5.062-5.062h26.457
	C442.952,96.632,445.218,98.898,445.218,101.694z"/>
<path style="fill:#00A97D;" d="M445.221,101.699v269.426h-12.495V101.699c0-2.797-2.264-5.071-5.061-5.071h12.496
	C442.947,96.628,445.221,98.902,445.221,101.699z"/>
<rect x="408.63" y="266.71" style="fill:#76FFD9;" width="36.586" height="104.42"/>
<rect x="432.73" y="266.71" style="fill:#00C395;" width="12.494" height="104.42"/>
<rect x="403.11" y="117.31" style="fill:#FFC843;" width="47.637" height="104.42"/>
<rect x="432.73" y="117.31" style="fill:#FFA816;" width="18.02" height="104.42"/>
<g>
	<path style="fill:#434C54;" d="M361.602,0H40.59c-4.142,0-7.5,3.357-7.5,7.5v411.055c0,4.143,3.358,7.5,7.5,7.5s7.5-3.357,7.5-7.5
		V15h306.012v15.714c0,4.143,3.357,7.5,7.5,7.5s7.5-3.357,7.5-7.5V7.5C369.102,3.357,365.745,0,361.602,0z"/>
	<path style="fill:#434C54;" d="M361.602,51.235c-4.143,0-7.5,3.357-7.5,7.5V497H48.09v-50.423c0-4.143-3.358-7.5-7.5-7.5
		s-7.5,3.357-7.5,7.5V504.5c0,4.143,3.358,7.5,7.5,7.5h321.012c4.143,0,7.5-3.357,7.5-7.5V58.735
		C369.102,54.593,365.745,51.235,361.602,51.235z"/>
</g>
<g>
	<path style="fill:#969BA1;" d="M56.267,174.508c0,4.143,3.358,7.5,7.5,7.5h274.658c4.143,0,7.5-3.357,7.5-7.5s-3.357-7.5-7.5-7.5
		H63.767C59.625,167.008,56.267,170.365,56.267,174.508z"/>
	<path style="fill:#969BA1;" d="M92.944,219.332h28.673c4.142,0,7.5-3.357,7.5-7.5s-3.358-7.5-7.5-7.5H92.944
		c-4.142,0-7.5,3.357-7.5,7.5S88.802,219.332,92.944,219.332z"/>
	<path style="fill:#969BA1;" d="M92.944,240.461h68.451c4.142,0,7.5-3.357,7.5-7.5s-3.358-7.5-7.5-7.5H92.944
		c-4.142,0-7.5,3.357-7.5,7.5S88.802,240.461,92.944,240.461z"/>
	<path style="fill:#969BA1;" d="M246.4,388.252c4.142,0,7.5-3.357,7.5-7.5s-3.358-7.5-7.5-7.5h-90.607c-4.142,0-7.5,3.357-7.5,7.5
		s3.358,7.5,7.5,7.5H246.4z"/>
	<path style="fill:#969BA1;" d="M316.749,401.881c0-4.143-3.357-7.5-7.5-7.5H92.944c-4.142,0-7.5,3.357-7.5,7.5s3.358,7.5,7.5,7.5
		h216.305C313.391,409.381,316.749,406.023,316.749,401.881z"/>
	<path style="fill:#969BA1;" d="M135.747,449.931c0,2.799-2.277,5.076-5.076,5.076s-5.076-2.277-5.076-5.076
		c0-11.07-9.006-20.076-20.076-20.076s-20.076,9.006-20.076,20.076c0,4.143,3.358,7.5,7.5,7.5s7.5-3.357,7.5-7.5
		c0-2.799,2.277-5.076,5.076-5.076s5.076,2.277,5.076,5.076c0,11.07,9.006,20.076,20.076,20.076s20.076-9.006,20.076-20.076
		c0-4.143-3.358-7.5-7.5-7.5S135.747,445.788,135.747,449.931z"/>
	<path style="fill:#969BA1;" d="M259.449,457.431c4.143,0,7.5-3.357,7.5-7.5c0-2.799,2.276-5.076,5.075-5.076
		s5.076,2.277,5.076,5.076c0,11.07,9.006,20.076,20.076,20.076c11.069,0,20.075-9.006,20.075-20.076c0-4.143-3.357-7.5-7.5-7.5
		s-7.5,3.357-7.5,7.5c0,2.799-2.276,5.076-5.075,5.076s-5.076-2.277-5.076-5.076c0-11.07-9.006-20.076-20.076-20.076
		c-11.069,0-20.075,9.006-20.075,20.076C251.949,454.073,255.306,457.431,259.449,457.431z"/>
</g>
<path style="fill:#FF8025;" d="M121.616,298.301H107.28c-4.142,0-7.5,3.357-7.5,7.5s3.358,7.5,7.5,7.5h14.336
	c4.142,0,7.5-3.357,7.5-7.5S125.759,298.301,121.616,298.301z"/>
<path style="fill:#00C395;" d="M169.394,290.333h119.722c4.143,0,7.5-3.357,7.5-7.5s-3.357-7.5-7.5-7.5H169.394
	c-4.142,0-7.5,3.357-7.5,7.5S165.252,290.333,169.394,290.333z"/>
<path style="fill:#FFA816;" d="M289.116,321.403H169.394c-4.142,0-7.5,3.357-7.5,7.5s3.358,7.5,7.5,7.5h119.722
	c4.143,0,7.5-3.357,7.5-7.5S293.259,321.403,289.116,321.403z"/>
<g>
	<path style="fill:#969BA1;" d="M94.244,110.446c0-4.143-3.358-7.5-7.5-7.5s-7.5,3.357-7.5,7.5c0,10.708,8.708,19.749,20.536,22.487
		v2.743c0,4.143,3.358,7.5,7.5,7.5s7.5-3.357,7.5-7.5v-2.743c11.828-2.738,20.536-11.779,20.536-22.487
		c0-7.96-8.412-13.398-20.536-20.238v-18.19c3.445,1.635,5.536,4.277,5.536,6.743c0,4.143,3.358,7.5,7.5,7.5
		c4.142,0,7.5-3.357,7.5-7.5c0-10.708-8.708-19.749-20.536-22.487v-2.743c0-4.143-3.358-7.5-7.5-7.5s-7.5,3.357-7.5,7.5v2.743
		c-11.828,2.738-20.536,11.779-20.536,22.487c0,7.96,8.412,13.397,20.536,20.237v18.191
		C96.336,115.555,94.244,112.912,94.244,110.446z M120.171,111.589c-0.528,2.108-2.479,4.207-5.391,5.591v-9.535
		C117.131,109.131,119.126,110.53,120.171,111.589z M94.389,77.618c0.528-2.108,2.479-4.206,5.391-5.59v9.534
		C97.429,80.077,95.434,78.678,94.389,77.618z"/>
	<path style="fill:#969BA1;" d="M169.394,143.176h31.149c4.142,0,7.5-3.357,7.5-7.5s-3.358-7.5-7.5-7.5h-31.149
		c-4.142,0-7.5,3.357-7.5,7.5S165.252,143.176,169.394,143.176z"/>
	<path style="fill:#969BA1;" d="M169.394,61.782h6.551c4.142,0,7.5-3.357,7.5-7.5s-3.358-7.5-7.5-7.5h-6.551
		c-4.142,0-7.5,3.357-7.5,7.5S165.252,61.782,169.394,61.782z"/>
	<path style="fill:#969BA1;" d="M239.322,61.782c4.142,0,7.5-3.357,7.5-7.5s-3.358-7.5-7.5-7.5h-42.054c-4.142,0-7.5,3.357-7.5,7.5
		s3.358,7.5,7.5,7.5H239.322z"/>
</g>
<path style="fill:#434C54;" d="M471.41,105.746c-4.143,0-7.5,3.357-7.5,7.5v17.47h-5.663v-13.407c0-3.458-2.343-6.361-5.525-7.229
	v-8.382c0-4.945-2.879-9.219-7.043-11.266V77.754c0-5.018-1.957-9.729-5.483-13.239c-3.536-3.552-8.247-5.509-13.265-5.509
	c-10.338,0-18.748,8.41-18.748,18.748v12.678c-4.163,2.048-7.042,6.322-7.042,11.266v8.38c-3.185,0.866-5.53,3.77-5.53,7.23v104.417
	c0,3.46,2.345,6.364,5.53,7.23v13.802c0,0.032-0.005,0.064-0.005,0.097s0.004,0.064,0.005,0.097v23.662
	c0,0.032-0.005,0.064-0.005,0.097s0.004,0.064,0.005,0.097V370.92c-0.029,1.021,0.158,2.069,0.54,3.017l19.08,47.275
	c1.146,2.839,3.9,4.693,6.954,4.693c0.037,0,0.073,0,0.109-0.001c3.098-0.045,5.849-1.989,6.925-4.895l17.506-47.275
	c0.303-0.823,0.467-1.723,0.467-2.601V228.954c3.183-0.868,5.525-3.771,5.525-7.229v-76.01h5.663v123.532c0,4.143,3.357,7.5,7.5,7.5
	s7.5-3.357,7.5-7.5V113.246C478.91,109.104,475.552,105.746,471.41,105.746z M423.182,77.754c0-2.066,1.682-3.748,3.748-3.748
	c0.998,0,1.933,0.388,2.657,1.116c0.703,0.699,1.091,1.634,1.091,2.632v11.384h-7.496V77.754z M416.14,104.138h21.581v5.671H416.14
	V104.138z M427.415,397.621l-7.663-18.986h14.693L427.415,397.621z M437.721,363.635H416.14V229.226h21.581V363.635z
	 M443.247,137.867c-0.005,0.116-0.018,0.231-0.018,0.348s0.012,0.232,0.018,0.348v75.661H410.61v-89.417h32.637L443.247,137.867
	L443.247,137.867z"/>
<g>
</g>
<g>
</g>
<g>
</g>
<g>
</g>
<g>
</g>
<g>
</g>
<g>
</g>
<g>
</g>
<g>
</g>
<g>
</g>
<g>
</g>
<g>
</g>
<g>
</g>
<g>
</g>
<g>
</g>
</svg>
