<svg enable-background="new 0 0 24 24" height="512" viewBox="0 0 24 24" width="512" xmlns="http://www.w3.org/2000/svg"><path d="m2.75 7.5c-.17 0-.34-.057-.481-.175-.318-.265-.36-.739-.094-1.056l1.464-1.75c.266-.317.738-.36 1.057-.094.317.265.359.739.094 1.056l-1.464 1.75c-.149.177-.362.269-.576.269z" fill="#546e7a"/><path d="m10.25 7.5c-.214 0-.427-.092-.576-.269l-1.464-1.75c-.265-.317-.223-.791.094-1.056.318-.267.791-.224 1.057.094l1.464 1.75c.266.317.224.791-.094 1.057-.14.117-.311.174-.481.174z" fill="#546e7a"/><path d="m4.215 4.25c-.215 0-.428.091-.576.269l-1.464 1.75c-.266.317-.224.791.094 1.056l2.427-2.9c-.141-.118-.311-.175-.481-.175z" fill="#49606a"/><path d="m8.785 4.25c-.17 0-.34.057-.481.175l2.427 2.9c.317-.266.359-.739.094-1.057l-1.464-1.75c-.149-.177-.362-.268-.576-.268z" fill="#49606a"/><path d="m21.25 24h-7.5c-.414 0-.75-.336-.75-.75v-5.75c0-.414.336-.75.75-.75h7.5c.414 0 .75.336.75.75v5.75c0 .414-.336.75-.75.75z" fill="#4caf50"/><path d="m21.25 16.75h-7.5c-.414 0-.75-.336-.75-.75v-5.5c0-.414.336-.75.75-.75h7.5c.414 0 .75.336.75.75v5.5c0 .414-.336.75-.75.75z" fill="#2196f3"/><path d="m21.25 9.75h-7.5c-.414 0-.75-.336-.75-.75v-6.25c0-.414.336-.75.75-.75h7.5c.414 0 .75.336.75.75v6.25c0 .414-.336.75-.75.75z" fill="#4caf50"/><path d="m17.5 16.75h-3.75c-.414 0-.75.336-.75.75v5.75c0 .414.336.75.75.75h3.75z" fill="#429846"/><path d="m17.5 9.75h-3.75c-.414 0-.75.336-.75.75v5.5c0 .414.336.75.75.75h3.75z" fill="#1d83d4"/><path d="m17.5 2h-3.75c-.414 0-.75.336-.75.75v6.25c0 .414.336.75.75.75h3.75z" fill="#429846"/><path d="m10.25 14h-7.5c-.414 0-.75-.336-.75-.75v-6.5c0-.414.336-.75.75-.75h7.5c.414 0 .75.336.75.75v6.5c0 .414-.336.75-.75.75z" fill="#2196f3"/><path d="m10.25 24h-7.5c-.414 0-.75-.336-.75-.75v-6.5c0-.414.336-.75.75-.75h7.5c.414 0 .75.336.75.75v6.5c0 .414-.336.75-.75.75z" fill="#4caf50"/><path d="m6.625 6h-3.875c-.414 0-.75.336-.75.75v6.5c0 .414.336.75.75.75h3.875z" fill="#1d83d4"/><path d="m6.625 16h-3.875c-.414 0-.75.336-.75.75v6.5c0 .414.336.75.75.75h3.875z" fill="#429846"/><path d="m8 12c-.414 0-.75-.336-.75-.75v-2.5c0-.414.336-.75.75-.75s.75.336.75.75v2.5c0 .414-.336.75-.75.75z" fill="#1976d2"/><path d="m8 22c-.414 0-.75-.336-.75-.75v-2.5c0-.414.336-.75.75-.75s.75.336.75.75v2.5c0 .414-.336.75-.75.75z" fill="#388e3c"/><path d="m19 22.375c-.414 0-.75-.336-.75-.75v-2.5c0-.414.336-.75.75-.75s.75.336.75.75v2.5c0 .414-.336.75-.75.75z" fill="#388e3c"/><path d="m19 15.25c-.414 0-.75-.336-.75-.75v-2.5c0-.414.336-.75.75-.75s.75.336.75.75v2.5c0 .414-.336.75-.75.75z" fill="#1976d2"/><path d="m19 7.875c-.414 0-.75-.336-.75-.75v-2.5c0-.414.336-.75.75-.75s.75.336.75.75v2.5c0 .414-.336.75-.75.75z" fill="#388e3c"/><path d="m6.5 4c-.827 0-1.5-.673-1.5-1.5 0-.555.302-1.039.75-1.299v-.451c0-.414.336-.75.75-.75s.75.336.75.75v1c0 .414-.336.75-.75.75.414 0 .75.336.75.75s-.336.75-.75.75z" fill="#546e7a"/><path d="m6.5 0c-.414 0-.75.336-.75.75v.451c-.448.26-.75.744-.75 1.299 0 .827.673 1.5 1.5 1.5.043 0 .084-.004.125-.01v-1.48c-.041-.006-.082-.01-.125-.01.043 0 .084-.004.125-.01v-2.48c-.041-.006-.082-.01-.125-.01z" fill="#49606a"/><path d="m5 12c-.414 0-.75-.336-.75-.75v-2.5c0-.414.336-.75.75-.75s.75.336.75.75v2.5c0 .414-.336.75-.75.75z" fill="#1976d2"/><path d="m5 22c-.414 0-.75-.336-.75-.75v-2.5c0-.414.336-.75.75-.75s.75.336.75.75v2.5c0 .414-.336.75-.75.75z" fill="#388e3c"/><path d="m4.964 8.001c-.397.018-.714.347-.714.749v2.5c0 .402.317.731.714.749z" fill="#1667b7"/><path d="m4.964 18.001c-.397.018-.714.347-.714.749v2.5c0 .402.317.731.714.749z" fill="#317c34"/><path d="m7.964 8.001c-.397.018-.714.347-.714.749v2.5c0 .402.317.731.714.749z" fill="#1667b7"/><path d="m7.964 18.001c-.397.018-.714.347-.714.749v2.5c0 .402.317.731.714.749z" fill="#317c34"/><path d="m16 22.375c-.414 0-.75-.336-.75-.75v-2.5c0-.414.336-.75.75-.75s.75.336.75.75v2.5c0 .414-.336.75-.75.75z" fill="#388e3c"/><path d="m16 15.25c-.414 0-.75-.336-.75-.75v-2.5c0-.414.336-.75.75-.75s.75.336.75.75v2.5c0 .414-.336.75-.75.75z" fill="#1976d2"/><path d="m16 7.875c-.414 0-.75-.336-.75-.75v-2.5c0-.414.336-.75.75-.75s.75.336.75.75v2.5c0 .414-.336.75-.75.75z" fill="#388e3c"/><path d="m16 18.375c-.414 0-.75.336-.75.75v2.5c0 .414.336.75.75.75z" fill="#317c34"/><path d="m16 11.25c-.414 0-.75.336-.75.75v2.5c0 .414.336.75.75.75z" fill="#1667b7"/><path d="m16 3.875c-.414 0-.75.336-.75.75v2.5c0 .414.336.75.75.75z" fill="#317c34"/><path d="m19 18.375c-.414 0-.75.336-.75.75v2.5c0 .414.336.75.75.75z" fill="#317c34"/><path d="m19 11.25c-.414 0-.75.336-.75.75v2.5c0 .414.336.75.75.75z" fill="#1667b7"/><path d="m19 3.875c-.414 0-.75.336-.75.75v2.5c0 .414.336.75.75.75z" fill="#317c34"/></svg>