<?xml version="1.0" encoding="iso-8859-1"?>
<!-- Generator: Adobe Illustrator 19.0.0, SVG Export Plug-In . SVG Version: 6.00 Build 0)  -->
<svg version="1.1" id="Capa_1" xmlns="http://www.w3.org/2000/svg" xmlns:xlink="http://www.w3.org/1999/xlink" x="0px" y="0px"
	 viewBox="0 0 512 512" style="enable-background:new 0 0 512 512;" xml:space="preserve">
<path style="fill:#FFA816;" d="M304.91,115.227v355.92c0,18.284-14.962,33.247-33.247,33.247H114.405
	c-18.284,0-33.247-14.962-33.247-33.247v-355.92c0-18.285,14.962-33.247,33.247-33.247h157.259
	C289.948,81.98,304.91,96.942,304.91,115.227z"/>
<path style="fill:#FFC843;" d="M304.91,115.227v355.92c0,18.284-14.962,33.247-33.247,33.247H139.453
	c-18.285,0-33.247-14.962-33.247-33.247v-355.92c0-18.285,14.962-33.247,33.247-33.247h132.211
	C289.948,81.98,304.91,96.942,304.91,115.227z"/>
<rect x="81.158" y="147.155" style="fill:#FFFFFF;" width="223.753" height="292.052"/>
<rect x="81.158" y="147.155" style="fill:#76FFD9;" width="25.048" height="292.052"/>
<path style="fill:#D8E0EA;" d="M403.261,426.773l-71.651,31.235c-8.559,3.733-18.623-0.221-22.355-8.78l-6.181-14.178
	c-0.602-1.375-1.776-2.408-3.221-2.819l-49.175-14.007c-10.034-2.86-16.215-13.505-13.224-23.499
	c2.93-9.763,13.245-15.442,23.068-12.643l12,3.241c3.341,0.903,6.331-1.716,6.331-4.816c0-0.662-0.141-1.345-0.431-2.017
	c-0.161-0.351-0.301-0.712-0.431-1.074c-0.171-0.341-0.341-0.692-0.502-1.044l-35.008-80.29c-4.064-9.331,0.07-20.268,9.191-24.623
	c0.652-0.311,1.324-0.592,2.027-0.833c9.382-3.211,19.636,1.605,23.599,10.696l33.141,76.006l52.557-22.917
	c8.559-3.733,18.613,0.221,22.345,8.78l25.125,57.614l1.575,3.612C415.763,412.987,411.82,423.041,403.261,426.773z"/>
<path style="fill:#00C395;" d="M424.111,469.046l-60.223,26.258L346.249,503c-5.519,2.398-11.93-0.12-14.338-5.629l-10.144-23.278
	c-2.83-6.502,0.161-14.128,6.662-16.957l18.091-7.897l56.109-24.462c6.502-2.83,14.128,0.171,16.957,6.662l10.154,23.278
	C432.138,460.226,429.62,466.647,424.111,469.046z"/>
<path style="fill:#76FFD9;" d="M424.111,469.046l-60.223,26.258c-3.371-0.903-6.311-3.271-7.816-6.723l-11.087-25.436
	c-2.057-4.716-1.294-9.994,1.535-13.907l56.109-24.462c6.502-2.83,14.128,0.171,16.957,6.662l10.154,23.278
	C432.138,460.226,429.62,466.647,424.111,469.046z"/>
<path style="fill:#FFFFFF;" d="M410.465,400.806l-69.644,31.004c-8.378,3.723-18.191-0.05-21.894-8.428l-67.256-151.921
	c0.652-0.311,1.324-0.592,2.027-0.833c9.382-3.211,19.636,1.605,23.599,10.696l33.141,76.006l52.557-22.917
	c8.559-3.733,18.613,0.221,22.345,8.78L410.465,400.806z"/>
<g>
	<path style="fill:#00C395;" d="M303.706,65.947c13.032,0,23.633,10.602,23.633,23.634c0,4.156,3.369,7.525,7.525,7.525
		s7.525-3.369,7.525-7.525c0-21.331-17.353-38.685-38.684-38.685c-4.156,0-7.525,3.369-7.525,7.525S299.55,65.947,303.706,65.947z"
		/>
	<path style="fill:#00C395;" d="M303.706,15.051c41.096,0,74.531,33.434,74.531,74.531c0,4.156,3.369,7.525,7.525,7.525
		s7.525-3.369,7.525-7.525C393.288,40.186,353.101,0,303.706,0c-4.156,0-7.525,3.369-7.525,7.525S299.55,15.051,303.706,15.051z"/>
	<path style="fill:#00C395;" d="M303.706,39.541c27.593,0,50.04,22.447,50.04,50.04c0,4.156,3.369,7.525,7.525,7.525
		s7.525-3.369,7.525-7.525c0-35.892-29.199-65.091-65.091-65.091c-4.156,0-7.525,3.369-7.525,7.525S299.55,39.541,303.706,39.541z"
		/>
</g>
<g>
	<path style="fill:#FFFFFF;" d="M156.642,119.93h35.37c4.433,0,8.027-3.594,8.027-8.027s-3.594-8.027-8.027-8.027h-35.37
		c-4.433,0-8.027,3.594-8.027,8.027S152.208,119.93,156.642,119.93z"/>
	<circle style="fill:#FFFFFF;" cx="221.966" cy="111.906" r="7.131"/>
	<path style="fill:#FFFFFF;" d="M166.768,463.787c-4.156,0-7.525,3.369-7.525,7.525s3.369,7.525,7.525,7.525h52.2
		c4.156,0,7.525-3.369,7.525-7.525s-3.369-7.525-7.525-7.525H166.768z"/>
</g>
<path style="fill:#00C395;" d="M171.059,252.559c0-14.795,11.913-19.983,26.132-19.983c16.716,0,22.289,7.302,26.708,7.302
	s6.917-5.764,6.917-8.839c0-7.896-16.661-11.943-29.943-12.587v-23.704c0-4.156-3.369-7.525-7.525-7.525s-7.525,3.369-7.525,7.525
	v24.562c-15.813,2.75-30.904,12.031-30.904,34.787c0,46.691,63.215,29.206,63.215,67.827c0,15.948-10.568,23.826-26.708,23.826
	c-22.673,0-27.092-15.563-32.857-15.563c-3.65,0-7.109,4.996-7.109,8.839c0,7.53,13.251,19.365,34.363,21.404v23.947
	c0,4.156,3.369,7.525,7.525,7.525s7.525-3.369,7.525-7.525v-24.227c19.804-2.8,33.401-15.664,33.401-39.761
	C234.275,268.124,171.059,285.033,171.059,252.559z"/>
<g>
	<path style="fill:#434C54;" d="M399.99,419.435c0.003-0.001,0.007-0.003,0.01-0.004c0.006-0.003,0.013-0.006,0.018-0.008
		C400.009,419.426,400,419.431,399.99,419.435z"/>
	<path style="fill:#434C54;" d="M400.018,419.423c0.003-0.001,0.005-0.002,0.007-0.003
		C400.023,419.421,400.021,419.422,400.018,419.423z"/>
	<path style="fill:#434C54;" d="M400.044,419.411c-0.005,0.002-0.011,0.005-0.018,0.008
		C400.034,419.416,400.039,419.414,400.044,419.411z"/>
	<path style="fill:#434C54;" d="M437.195,451.717l-9.532-21.833c-1.736-3.983-4.585-7.144-8.027-9.271
		c2.438-6.03,2.559-12.984-0.241-19.395l-26.7-61.236c-2.659-6.1-7.555-10.816-13.786-13.255
		c-6.231-2.448-13.024-2.328-19.124,0.331l-45.192,19.706l-2.097-4.806V114.142c0-22.516-18.322-40.837-40.837-40.837h-157.58
		c-22.516,0-40.837,18.322-40.837,40.837v356.639c0,22.516,18.322,40.837,40.837,40.837h133.258c4.154,0,7.525-3.371,7.525-7.525
		s-3.371-7.525-7.525-7.525H114.079c-14.218,0-25.787-11.569-25.787-25.787v-24.47h209.153v24.47
		c0,12.542-8.98,23.228-21.342,25.395c-4.094,0.722-6.823,4.626-6.111,8.719c0.722,4.094,4.626,6.833,8.719,6.111
		c19.576-3.442,33.784-20.358,33.784-40.225v-6.592c0.552,0.311,1.124,0.602,1.706,0.873c-1.314,4.605-1.003,9.462,0.923,13.887
		l9.522,21.843c4.183,9.586,15.358,13.714,24.593,9.652l78.293-34.135c4.575-1.987,8.097-5.649,9.923-10.295
		C439.282,461.37,439.182,456.293,437.195,451.717z M88.292,431.26V114.142c0-14.218,11.569-25.787,25.787-25.787h157.58
		c14.218,0,25.787,11.569,25.787,25.787v193.29l-12.783-29.319c-5.659-12.974-20.399-19.596-33.563-15.071
		c-14.994,5.132-22.184,22.009-15.974,36.242l33.422,76.648l-5.88-1.585c-22.539-6.354-42.098,17.565-30.673,38.399
		c3.502,6.402,9.512,11.218,16.485,13.204l18.633,5.308l0.006,0.002L88.292,431.26L88.292,431.26z M328.399,450.654
		c-0.03,0.01-0.05,0.02-0.08,0.03c-4.529,1.917-9.767-0.216-11.699-4.656l-4.124-9.452l-2.067-4.736
		c-1.555-3.582-4.616-6.261-8.378-7.325l-4.605-1.314l-44.56-12.693c-2.87-0.823-5.358-2.819-6.813-5.478
		c-4.624-8.443,3.43-17.794,12.251-15.221c0.336,0.084,0.145,0.029,0.058,0.005c0.268,0.074,2.259,0.62,12.053,3.266
		c10.768,2.903,20.549-8.314,14.679-19.365c-0.247-0.493-1.379-3.136-35.269-80.842c-1.224-2.799-1.204-5.9,0.04-8.729
		c3.844-8.783,16.162-8.547,20.057,0.381l27.503,63.072l5.639,12.934c1.689,3.873,6.237,5.976,10.566,4.154l52.547-22.917
		c2.177-0.943,4.605-0.983,6.843-0.1c2.238,0.873,3.993,2.559,4.937,4.736l26.7,61.226c1.977,4.525-0.1,9.813-4.626,11.78
		c-0.002,0.001-0.004,0.002-0.006,0.003c0.002-0.001,0.004-0.002,0.006-0.003l0,0c-0.019,0.008-0.034,0.015-0.05,0.022
		c-0.018,0.008-0.04,0.017-0.068,0.029c0.001-0.001,0.003-0.001,0.004-0.002c-0.006,0.003-0.012,0.005-0.017,0.007
		c-0.021,0.009-0.047,0.021-0.075,0.033c0.005-0.002,0.01-0.005,0.017-0.008c-0.031,0.013-0.037,0.016-0.029,0.013
		C398.329,420.159,387.849,424.729,328.399,450.654z M421.111,461.6l-78.283,34.135c-1.334,0.572-2.88-0.03-3.462-1.365
		l-9.522-21.843c-0.999-2.29,0.073-5.028,2.368-6.02c61.213-26.694,72.775-31.736,73.264-31.949
		c-0.387,0.169-6.988,3.048,1.447-0.63c0.572-0.251,1.184-0.371,1.776-0.371c1.776,0,3.512,1.044,4.254,2.739l9.522,21.843
		C423.053,459.461,422.458,461.012,421.111,461.6z"/>
	<path style="fill:#434C54;" d="M399.969,419.444c0.007-0.003,0.014-0.006,0.021-0.009
		C399.983,419.438,399.975,419.442,399.969,419.444z"/>
	<path style="fill:#434C54;" d="M399.845,419.498c-0.005,0.002-0.009,0.004-0.012,0.005
		C399.837,419.502,399.841,419.5,399.845,419.498z"/>
	<path style="fill:#434C54;" d="M399.936,419.458c0.01-0.005,0.02-0.009,0.032-0.014
		C399.958,419.449,399.947,419.454,399.936,419.458z"/>
</g>
<g>
</g>
<g>
</g>
<g>
</g>
<g>
</g>
<g>
</g>
<g>
</g>
<g>
</g>
<g>
</g>
<g>
</g>
<g>
</g>
<g>
</g>
<g>
</g>
<g>
</g>
<g>
</g>
<g>
</g>
</svg>
