<svg id="Layer_1" height="512" viewBox="0 0 512 512" width="512" xmlns="http://www.w3.org/2000/svg" data-name="Layer 1"><path d="m92.733 481v-450a14.015 14.015 0 0 1 14-14h-30a14.015 14.015 0 0 0 -14 14v450a14.015 14.015 0 0 0 14 14h30a14.015 14.015 0 0 1 -14-14z" fill="#d4e1f4"/><path d="m76.733 507h358.534a26.029 26.029 0 0 0 26-26v-450a26.029 26.029 0 0 0 -26-26h-358.534a26.03 26.03 0 0 0 -26 26v450a26.029 26.029 0 0 0 26 26zm-14-476a14.015 14.015 0 0 1 14-14h358.534a14.015 14.015 0 0 1 14 14v450a14.015 14.015 0 0 1 -14 14h-358.534a14.015 14.015 0 0 1 -14-14z" fill="#0635c9"/><path d="m90.809 385.522h328.3a6 6 0 0 0 0-12h-328.3a6 6 0 0 0 0 12z" fill="#0635c9"/><path d="m90.809 465.862h328.3a6 6 0 0 0 0-12h-328.3a6 6 0 0 0 0 12z" fill="#0635c9"/><path d="m90.809 425.692h328.3a6 6 0 0 0 0-12h-328.3a6 6 0 1 0 0 12z" fill="#0635c9"/><g fill="#1ae5be"><path d="m147.184 57.057a58.531 58.531 0 0 1 43.185 19.465 6 6 0 0 0 8.935-8.011 70.554 70.554 0 0 0 -52.059-23.454 6 6 0 1 0 -.061 12z"/><path d="m118.751 176.378a70.5 70.5 0 0 0 52.023 2.11 70.074 70.074 0 0 0 26.37-16.517 67.648 67.648 0 0 0 13.224-76.824 6 6 0 0 0 -10.85 5.128 55.626 55.626 0 0 1 -10.829 63.18 58.565 58.565 0 0 1 -65.089 11.945 56.778 56.778 0 0 1 -29.918-30.49 55.369 55.369 0 0 1 -2.289-35.532 57.146 57.146 0 0 1 36.816-39.157q.855-.3 1.709-.563a6 6 0 1 0 -3.6-11.448q-1 .315-2.015.663a69.129 69.129 0 0 0 -44.5 47.4 67.274 67.274 0 0 0 2.768 43.174 68.722 68.722 0 0 0 36.18 36.931z"/><path d="m113.535 97.943a36.163 36.163 0 0 0 -1.5 28.016 37.649 37.649 0 0 0 47.617 22.608 36.956 36.956 0 0 0 21.471-19 36.161 36.161 0 0 0 1.5-28.015c-6.815-19.152-28.174-29.292-47.618-22.609a36.961 36.961 0 0 0 -21.47 19zm10.811 5.207a25.04 25.04 0 0 1 14.562-12.859 25.813 25.813 0 0 1 8.406-1.41 25.41 25.41 0 0 1 24 16.693 24.246 24.246 0 0 1 -1.012 18.785 25.039 25.039 0 0 1 -14.561 12.86 25.563 25.563 0 0 1 -32.411-15.284 24.25 24.25 0 0 1 1.016-18.785z"/><path d="m123.873 242.317c13.879.554 17.18 11.484 17.521 12.775a6 6 0 0 0 11.651-2.873 29.89 29.89 0 0 0 -24.224-21.442v-6.131a6 6 0 0 0 -12 0v6.172a25.079 25.079 0 0 0 -13.274 6.62c-7.7 7.512-8.155 17.939-8.11 20.956.176 11.884 9.262 21.9 22.1 24.362l1.219.235c.919.178 2.01.389 2.687.516.39.074 1.433.382 1.881.515a3.845 3.845 0 0 1 .429.154c.078.033.155.064.234.093l1.727.651a4.377 4.377 0 0 1 .413.18c.8.4 1.054.547 1.586.852l1.065.615c.062.04.133.083.211.129 1.735 1.035 10.406 6.594 10.744 14.536.2 4.723-1 8.321-3.678 11-4.391 4.395-11.676 5.311-15.287 5.164-5.24-.217-15.483-4.732-16.375-12.587a6 6 0 0 0 -11.924 1.353c1.471 12.965 14.116 20.984 24.355 22.828v5.12a6 6 0 0 0 12 0v-5.425a30.644 30.644 0 0 0 15.721-7.972c5.038-5.043 7.519-11.956 7.176-19.99-.584-13.754-12.844-22.1-16.628-24.357-.1-.062-.339-.2-.488-.292l-.923-.525c-.728-.418-1.126-.642-2.184-1.172a15.982 15.982 0 0 0 -1.559-.681l-1.622-.611a16.019 16.019 0 0 0 -1.595-.565c-1.093-.323-2.15-.628-3.067-.8-.662-.124-1.726-.33-2.621-.5l-1.243-.24c-8.428-1.615-12.278-7.569-12.355-12.754-.055-3.721 1.1-8.877 4.491-12.188 2.736-2.679 6.773-3.928 11.946-3.721z"/><path d="m382.877 335.049h30.969a8.009 8.009 0 0 0 8-8v-61.423a8.009 8.009 0 0 0 -8-8h-30.969a8.009 8.009 0 0 0 -8 8v61.423a8.009 8.009 0 0 0 8 8zm4-65.423h22.969v53.423h-22.969z"/><path d="m353.043 225.263h-30.968a8.009 8.009 0 0 0 -8 8v93.786a8.009 8.009 0 0 0 8 8h30.968a8.009 8.009 0 0 0 8-8v-93.786a8.009 8.009 0 0 0 -8-8zm-4 97.786h-22.968v-85.786h22.968z"/><path d="m292.242 198.665h-30.969a8.009 8.009 0 0 0 -8 8v120.384a8.009 8.009 0 0 0 8 8h30.969a8.009 8.009 0 0 0 8-8v-120.384a8.009 8.009 0 0 0 -8-8zm-4 124.384h-22.969v-112.384h22.969z"/><path d="m290.367 172.683c.127.009.253.012.379.012a6 6 0 0 0 5.982-5.627l1.188-19.08 82.229 68.722.5.373a8.179 8.179 0 0 0 4.584 1.4h41.501a6 6 0 0 0 0-12h-40.11l-80.334-67.138 22.177 1.334a6 6 0 1 0 .721-11.978l-33.784-2.034a8.13 8.13 0 0 0 -8.641 7.473 5.99 5.99 0 0 0 -.149 2.333l-1.859 29.849a6 6 0 0 0 5.616 6.361z"/></g></svg>