<svg height="512pt" viewBox="0 -72 512 512" width="512pt" xmlns="http://www.w3.org/2000/svg"><path d="m335.828125 367.359375h-114.71875l-32.03125-32.03125h-20.914063v-15.015625h27.132813l32.03125 32.03125h93.484375v-104.601562c0-4.691407-3.816406-8.507813-8.507812-8.507813h-71.570313v-39.539063c0-4.691406-3.816406-8.507812-8.507813-8.507812h-8.507812v35.640625l-20.414062 20.414063h-35.140626v-15.015626h28.921876l11.617187-11.617187v-44.4375h23.523437c12.972657 0 23.523438 10.550781 23.523438 23.523437v24.523438h56.554688c12.972656 0 23.523437 10.550781 23.523437 23.523438zm0 0"/><path d="m0 216.210938v151.148437h175.671875v-151.148437zm0 0" fill="#72e9cd"/><path d="m128.125 320.3125h16.015625v15.015625h-16.015625zm0 0" fill="#fff"/><path d="m315.414062 207.203125h-18.625v-32.03125h-24.023437v-175.171875h239.234375v175.171875h-164.554688zm-27.632812-47.046875h24.023438v29.421875l29.421874-29.421875h155.757813v-145.140625h-209.203125zm0 0"/><path d="m424.414062 28.921875-48.046874 48.046875-24.023438-24.023438-34.640625 34.640626 58.664063 58.664062 82.6875-82.6875zm0 0" fill="#72e9cd"/></svg>