<?xml version="1.0" encoding="iso-8859-1"?>
<!-- Generator: Adobe Illustrator 19.0.0, SVG Export Plug-In . SVG Version: 6.00 Build 0)  -->
<svg version="1.1" id="Capa_1" xmlns="http://www.w3.org/2000/svg" xmlns:xlink="http://www.w3.org/1999/xlink" x="0px" y="0px"
	 viewBox="0 0 512 512" style="enable-background:new 0 0 512 512;" xml:space="preserve">
<path style="fill:#FFC850;" d="M413.593,56.643H341.5v11.851c0,6.738-5.513,12.25-12.25,12.25H182.755
	c-6.738,0-12.25-5.512-12.25-12.25V56.643H98.411c-15.199,0-27.563,12.365-27.563,27.563v392.619
	c0,15.199,12.365,27.563,27.563,27.563h315.181c15.199,0,27.563-12.365,27.563-27.563V84.207
	C441.155,69.008,428.79,56.643,413.593,56.643z"/>
<path style="fill:#FEA82F;" d="M91.146,476.826V84.207c0-15.199,12.365-27.563,27.563-27.563H98.411
	c-15.199,0-27.563,12.365-27.563,27.563v392.619c0,15.199,12.365,27.563,27.563,27.563h20.299
	C103.512,504.389,91.146,492.024,91.146,476.826z"/>
<path style="fill:#FFFFFF;" d="M394.92,463.233H117.084c-2.918,0-5.284-2.366-5.284-5.284V114.812c0-2.918,2.366-5.284,5.284-5.284
	H394.92c2.918,0,5.284,2.366,5.284,5.284v343.137C400.204,460.867,397.838,463.233,394.92,463.233z"/>
<path style="fill:#E4EAF8;" d="M132.1,457.949V114.812c0-2.918,2.366-5.284,5.284-5.284h-20.299c-2.918,0-5.284,2.366-5.284,5.284
	v343.137c0,2.918,2.366,5.284,5.284,5.284h20.299C134.465,463.232,132.1,460.867,132.1,457.949z"/>
<path style="fill:#ABFFDB;" d="M260.176,235.025c-1.184,0-2.145-0.96-2.145-2.145v-66.907c-0.676-0.019-1.349-0.052-2.03-0.052
	c-39.285,0-71.132,31.848-71.132,71.132s31.848,71.132,71.132,71.132c39.286,0,71.132-31.848,71.132-71.132
	c0-0.681-0.032-1.354-0.051-2.03h-66.907V235.025z"/>
<path style="fill:#92E0C0;" d="M204.986,237.055c0-33.035,22.521-60.802,53.046-68.805v-2.275c-0.676-0.019-1.349-0.052-2.03-0.052
	c-39.285,0-71.132,31.848-71.132,71.132s31.848,71.132,71.132,71.132c3.416,0,6.771-0.256,10.058-0.722
	C231.541,302.578,204.986,272.924,204.986,237.055z"/>
<path style="fill:#FF9052;" d="M256.003,165.923v68.988c0,1.184,0.96,2.145,2.145,2.145h68.988
	C327.135,197.769,295.287,165.923,256.003,165.923z"/>
<path style="fill:#FF8031;" d="M275.976,234.911v-66.125c-6.339-1.852-13.037-2.863-19.975-2.863v68.988
	c0,1.184,0.96,2.145,2.145,2.145h19.975C276.937,237.055,275.976,236.095,275.976,234.911z"/>
<path style="fill:#FF9052;" d="M280.255,32.238V12.25c0-6.738-5.512-12.25-12.25-12.25h-24.006c-6.737,0-12.25,5.512-12.25,12.25
	v19.988H280.255z"/>
<path style="fill:#FF8031;" d="M264.672,0h-20.674c-6.737,0-12.25,5.512-12.25,12.25v19.988h20.673V12.25
	C252.422,5.512,257.935,0,264.672,0z"/>
<path style="fill:#E4EAF8;" d="M329.32,31.731H182.683c-6.996,0-12.687,5.691-12.687,12.687v24.148
	c0,6.996,5.691,12.687,12.687,12.687h146.636c6.996,0,12.687-5.691,12.687-12.687V44.417
	C342.007,37.422,336.315,31.731,329.32,31.731z"/>
<path style="fill:#C2C7D0;" d="M329.32,60.954H182.683c-6.996,0-12.687-5.691-12.687-12.687v20.299
	c0,6.996,5.691,12.687,12.687,12.687h146.636c6.996,0,12.687-5.691,12.687-12.687V48.267
	C342.007,55.263,336.315,60.954,329.32,60.954z"/>
<g>
	<path style="fill:#AFB5BC;" d="M309.665,145.925H202.334c-9.261,0-16.795-7.535-16.795-16.796V80.745
		c0-4.205,3.407-7.612,7.612-7.612s7.612,3.407,7.612,7.612v48.384c0,0.867,0.704,1.572,1.571,1.572h107.331
		c0.867,0,1.571-0.704,1.571-1.572V80.745c0-4.205,3.407-7.612,7.612-7.612s7.612,3.407,7.612,7.612v48.384
		C326.46,138.39,318.926,145.925,309.665,145.925z"/>
	<path style="fill:#AFB5BC;" d="M353.846,352.12H192.297c-4.205,0-7.612-3.407-7.612-7.612s3.407-7.612,7.612-7.612h161.55
		c4.205,0,7.612,3.407,7.612,7.612S358.051,352.12,353.846,352.12z"/>
	<path style="fill:#AFB5BC;" d="M353.846,388.108H192.297c-4.205,0-7.612-3.407-7.612-7.612s3.407-7.612,7.612-7.612h161.55
		c4.205,0,7.612,3.407,7.612,7.612S358.051,388.108,353.846,388.108z"/>
	<path style="fill:#AFB5BC;" d="M353.846,424.096H192.297c-4.205,0-7.612-3.407-7.612-7.612s3.407-7.612,7.612-7.612h161.55
		c4.205,0,7.612,3.407,7.612,7.612S358.051,424.096,353.846,424.096z"/>
	<path style="fill:#AFB5BC;" d="M158.688,352.121c-2.01,0-3.968-0.812-5.39-2.233c-1.411-1.411-2.222-3.38-2.222-5.379
		c0-2.01,0.812-3.968,2.222-5.39c1.421-1.411,3.38-2.222,5.39-2.222c1.999,0,3.957,0.812,5.379,2.222
		c1.421,1.421,2.233,3.38,2.233,5.39c0,2.009-0.812,3.968-2.233,5.379C162.646,351.309,160.687,352.121,158.688,352.121z"/>
	<path style="fill:#AFB5BC;" d="M158.688,388.11c-2.01,0-3.968-0.812-5.39-2.233c-1.411-1.421-2.222-3.38-2.222-5.379
		c0-2.01,0.812-3.968,2.222-5.39c1.421-1.411,3.38-2.222,5.39-2.222c1.999,0,3.957,0.812,5.379,2.222
		c1.421,1.421,2.233,3.38,2.233,5.39c0,1.999-0.812,3.957-2.233,5.379C162.646,387.3,160.687,388.11,158.688,388.11z"/>
	<path style="fill:#AFB5BC;" d="M158.688,424.1c-2.01,0-3.968-0.812-5.39-2.233c-1.411-1.421-2.222-3.38-2.222-5.379
		c0-2.01,0.812-3.968,2.222-5.39c1.421-1.411,3.38-2.222,5.39-2.222c1.999,0,3.957,0.812,5.379,2.222
		c1.421,1.421,2.233,3.38,2.233,5.39c0,1.999-0.812,3.957-2.233,5.379C162.646,423.289,160.687,424.1,158.688,424.1z"/>
</g>
<path style="fill:#474D54;" d="M441.153,261.822c4.205,0,7.612-3.407,7.612-7.612V84.206c0-19.395-15.78-35.174-35.175-35.174
	h-64.48v-4.615c0-10.913-8.879-19.791-19.791-19.791H182.682c-10.913,0-19.791,8.879-19.791,19.791v4.615H98.409
	c-19.395,0-35.174,15.779-35.174,35.174v392.62c0,19.395,15.779,35.174,35.174,35.174H413.59c19.395,0,35.175-15.779,35.175-35.174
	V289.732c0-4.205-3.407-7.612-7.612-7.612s-7.612,3.407-7.612,7.612v187.093c0,11.001-8.95,19.951-19.952,19.951H98.409
	c-11.001,0-19.95-8.95-19.95-19.951V84.206c0-11.001,8.95-19.95,19.95-19.95h64.481v4.31c0,10.913,8.879,19.791,19.791,19.791
	h146.637c10.913,0,19.791-8.879,19.791-19.791v-4.31h64.48c11.002,0,19.952,8.95,19.952,19.95V254.21
	C433.541,258.415,436.948,261.822,441.153,261.822z M182.752,73.133c-2.515,0-4.638-2.124-4.638-4.638V44.416
	c0-2.475,2.092-4.567,4.567-4.567h146.637c2.475,0,4.567,2.092,4.567,4.567v24.078c0,2.515-2.124,4.638-4.638,4.638H182.752z"/>
<g>
</g>
<g>
</g>
<g>
</g>
<g>
</g>
<g>
</g>
<g>
</g>
<g>
</g>
<g>
</g>
<g>
</g>
<g>
</g>
<g>
</g>
<g>
</g>
<g>
</g>
<g>
</g>
<g>
</g>
</svg>
