<svg enable-background="new 0 0 24 24" height="512" viewBox="0 0 24 24" width="512" xmlns="http://www.w3.org/2000/svg"><path d="m21.25 7.75c-.197 0-.392-.078-.535-.225l-2.5-2.55c-.138-.141-.215-.329-.215-.525v-3.7c0-.414.336-.75.75-.75h2.5c.414 0 .75.336.75.75v6.25c0 .305-.185.579-.467.694-.092.038-.187.056-.283.056z" fill="#b0bec5"/><path d="m20.25 24h-16.5c-.965 0-1.75-.785-1.75-1.75v-9.125c0-5.514 4.486-10 10-10s10 4.486 10 10v9.125c0 .965-.785 1.75-1.75 1.75z" fill="#cfd8dc"/><path d="m23.25 14h-2.935c-.414 0-.75-.336-.75-.75 0-4.069-3.394-7.38-7.565-7.38s-7.565 3.311-7.565 7.38c0 .414-.336.75-.75.75h-2.935c-.414 0-.75-.336-.75-.75 0-6.479 5.383-11.75 12-11.75s12 5.271 12 11.75c0 .414-.336.75-.75.75z" fill="#4caf50"/><path d="m19 24h-14v-5.5h14z" fill="#607d8b"/><path d="m19 20h-14v-5.5h14z" fill="#90a4ae"/><path d="m19 16h-14v-4c0-.552.448-1 1-1h12c.552 0 1 .448 1 1z" fill="#607d8b"/></svg>