<svg enable-background="new 0 0 24 24" height="512" viewBox="0 0 24 24" width="512" xmlns="http://www.w3.org/2000/svg"><path d="m20 5.946h-20l2.995-5.395c.183-.335.551-.551.94-.551h12.13c.389 0 .757.216.94.551z" fill="#ffa726"/><path d="m10.811 0 1.081 5.946h-3.784l1.081-5.946z" fill="#795548"/><path d="m9 15.738c0-3.164 2.58-5.738 5.75-5.738.968 0 1.914.246 2.75.699.764-.414 1.62-.644 2.5-.683v-4.07h-20v13.161c0 .493.4.893.893.893h9.604c-.875-1.336-1.497-2.795-1.497-4.262z" fill="#ffb74d"/><path d="m9.189 0h-5.254c-.389 0-.757.216-.94.551l-2.995 5.395h8.108z" fill="#de9121"/><path d="m10 0h-.811l-1.081 5.946h1.892z" fill="#694a3f"/><path d="m10 5.946h-1.892-8.108v13.161c0 .493.4.893.893.893h9.107v-.825c-.604-1.102-1-2.267-1-3.437 0-1.197.369-2.31 1-3.23z" fill="#de9f43"/><path d="m17.5 24c-.157 0-.314-.049-.447-.148-.62-.461-6.053-4.602-6.053-8.114 0-2.061 1.682-3.738 3.75-3.738 1.063 0 2.054.446 2.75 1.194.696-.748 1.687-1.194 2.75-1.194 2.068 0 3.75 1.677 3.75 3.738 0 3.512-5.433 7.653-6.053 8.114-.133.099-.29.148-.447.148z" fill="#f44336"/><path d="m14.75 12c-2.068 0-3.75 1.677-3.75 3.738 0 3.512 5.433 7.653 6.053 8.114.133.099.29.148.447.148v-10.806c-.696-.748-1.687-1.194-2.75-1.194z" fill="#d43a2f"/></svg>