<svg height="492pt" viewBox="-46 0 491 492" width="492pt" xmlns="http://www.w3.org/2000/svg"><path d="m318.941406 12.890625c-3.527344-1.25-7.242187-1.890625-10.980468-1.890625-18.871094 0-34.222657 15.972656-34.222657 35.609375v89.027344h21.960938v-89.027344c0-15.640625 9.742187-28.945313 23.242187-33.71875zm0 0" fill="#d4e1f4"/><path d="m66.859375 363.925781c-2.398437-2.023437-5.90625-2.023437-8.308594 0l-6.929687 5.765625 25.300781 21.054688 11.085937-9.226563zm0 0" fill="#d4e1f4"/><path d="m30.933594 53.222656c0-23.320312 18.238281-42.296875 40.652344-42.296875h-22.171876c-22.417968 0-40.652343 18.972657-40.652343 42.296875v334.976563l22.171875-18.453125zm0 0" fill="#d4e1f4"/><path d="m131.625 362.925781c-2.402344-2.023437-5.910156-2.023437-8.3125 0l-6.929688 5.769531 25.292969 21.050782 11.085938-9.226563zm0 0" fill="#d4e1f4"/><g fill="#0635c9"><path d="m40.5625 180h2.347656c3.316406 0 6-2.6875 6-6s-2.683594-6-6-6h-2.347656c-3.3125 0-6 2.6875-6 6s2.6875 6 6 6zm0 0"/><path d="m84.054688 168h-17.730469c-3.3125 0-6 2.6875-6 6s2.6875 6 6 6h17.730469c3.3125 0 6-2.6875 6-6s-2.6875-6-6-6zm0 0"/><path d="m234.9375 168h-127.085938c-3.3125 0-6 2.6875-6 6s2.6875 6 6 6h127.085938c3.3125 0 6-2.6875 6-6s-2.6875-6-6-6zm0 0"/><path d="m40.5625 130h2.347656c3.316406 0 6-2.6875 6-6s-2.683594-6-6-6h-2.347656c-3.3125 0-6 2.6875-6 6s2.6875 6 6 6zm0 0"/><path d="m84.054688 118h-17.730469c-3.3125 0-6 2.6875-6 6s2.6875 6 6 6h17.730469c3.3125 0 6-2.6875 6-6s-2.6875-6-6-6zm0 0"/><path d="m234.9375 118h-127.085938c-3.3125 0-6 2.6875-6 6s2.6875 6 6 6h127.085938c3.3125 0 6-2.6875 6-6s-2.6875-6-6-6zm0 0"/><path d="m40.5625 80h2.347656c3.316406 0 6-2.6875 6-6s-2.683594-6-6-6h-2.347656c-3.3125 0-6 2.6875-6 6s2.6875 6 6 6zm0 0"/><path d="m84.054688 68h-17.730469c-3.3125 0-6 2.6875-6 6s2.6875 6 6 6h17.730469c3.3125 0 6-2.6875 6-6s-2.6875-6-6-6zm0 0"/><path d="m234.9375 68h-127.085938c-3.3125 0-6 2.6875-6 6s2.6875 6 6 6h127.085938c3.3125 0 6-2.6875 6-6s-2.6875-6-6-6zm0 0"/><path d="m40.5625 230h2.347656c3.316406 0 6-2.6875 6-6s-2.683594-6-6-6h-2.347656c-3.3125 0-6 2.6875-6 6s2.6875 6 6 6zm0 0"/><path d="m90.054688 224c0-3.3125-2.6875-6-6-6h-17.730469c-3.3125 0-6 2.6875-6 6s2.6875 6 6 6h17.730469c3.3125 0 6-2.6875 6-6zm0 0"/><path d="m190.9375 224c0-3.3125-2.6875-6-6-6h-77.085938c-3.3125 0-6 2.6875-6 6s2.6875 6 6 6h77.085938c3.3125 0 6-2.6875 6-6zm0 0"/><path d="m55.472656 284.488281c4.917969.007813 8.902344 3.992188 8.910156 8.910157 0 3.3125 2.683594 6 6 6 3.3125 0 6-2.6875 6-6-.015624-9.230469-6.070312-17.363282-14.910156-20.019532v-3.078125c0-3.316406-2.6875-6-6-6s-6 2.683594-6 6v3.078125c-9.953125 2.964844-16.21875 12.785156-14.710937 23.0625 1.503906 10.273438 10.328125 17.882813 20.710937 17.867188 4.917969-.027344 8.929688 3.933594 8.960938 8.851562.027344 4.921875-3.9375 8.929688-8.855469 8.960938-.035156 0-.070313-.007813-.105469-.007813s-.070312.007813-.105468.007813c-4.871094-.0625-8.792969-4.027344-8.800782-8.898438 0-3.316406-2.6875-6-6-6s-6 2.683594-6 6c.015625 9.230469 6.070313 17.363282 14.910156 20.019532v3.757812c0 3.3125 2.6875 6 6 6s6-2.6875 6-6v-3.757812c9.953126-2.964844 16.21875-12.785157 14.710938-23.0625-1.507812-10.273438-10.328125-17.882813-20.710938-17.867188-4.921874 0-8.910156-3.988281-8.910156-8.910156 0-4.917969 3.988282-8.90625 8.910156-8.90625zm0 0"/><path d="m169.183594 330.710938h22.824218c3.3125 0 6-2.683594 6-6 0-3.3125-2.6875-6-6-6h-22.824218c-3.3125 0-6 2.6875-6 6 0 3.316406 2.6875 6 6 6zm0 0"/><path d="m103.433594 318.710938c-3.3125 0-6 2.6875-6 6 0 3.316406 2.6875 6 6 6h44.5c3.3125 0 6-2.683594 6-6 0-3.3125-2.6875-6-6-6zm0 0"/><path d="m308.199219.0507812v-.0507812h-259.03125c-26.867188.03125-48.636719 21.800781-48.667969 48.667969v345.332031c0 2.304688 1.320312 4.410156 3.402344 5.410156 2.078125.996094 4.542968.714844 6.34375-.722656l29.070312-23.253906 29.070313 23.253906c2.191406 1.753906 5.308593 1.753906 7.5 0l29.066406-23.253906 29.0625 23.253906c2.195313 1.753906 5.308594 1.753906 7.5 0l29.066406-23.253906 29.0625 23.253906c2.191407 1.753906 5.308594 1.753906 7.5 0l10.367188-8.292969-7.5-9.371093-6.617188 5.292968-29.070312-23.253906c-2.191407-1.753906-5.308594-1.753906-7.5 0l-29.0625 23.253906-29.066407-23.253906c-2.191406-1.753906-5.304687-1.753906-7.5 0l-29.058593 23.253906-29.070313-23.253906c-2.195312-1.753906-5.308594-1.753906-7.5 0l-23.070312 18.457031v-332.851562c.023437-20.242188 16.429687-36.648438 36.671875-36.667969h227.179687c-8.527344 8.125-13.351562 19.386719-13.347656 31.164062v185.085938h12v-81.160156h68.332031c3.3125 0 6-2.6875 6-6v-97.925782c-.027343-23.035156-18.121093-42-41.132812-43.1132808zm29.132812 135.0390628h-62.332031v-91.925782c.097656-17.140624 14.023438-30.988281 31.164062-30.988281 17.144532 0 31.070313 13.847657 31.167969 30.988281zm0 0"/></g><path d="m383.75 222.25h-160c-8.832031.011719-15.988281 7.167969-16 16v237.75c.011719 8.832031 7.167969 15.988281 16 16h160c8.832031-.011719 15.988281-7.167969 16-16v-237.75c-.011719-8.832031-7.167969-15.988281-16-16zm4 253.75c0 2.210938-1.789062 4-4 4h-160c-2.210938 0-4-1.789062-4-4v-237.75c0-2.210938 1.789062-4 4-4h160c2.210938 0 4 1.789062 4 4zm0 0" fill="#1ae5be"/><path d="m371.25 244.75h-135c-3.3125 0-6 2.6875-6 6v35c0 3.3125 2.6875 6 6 6h135c3.3125 0 6-2.6875 6-6v-35c0-3.3125-2.6875-6-6-6zm-6 35h-123v-23h123zm0 0" fill="#1ae5be"/><path d="m266.25 313.5h-30c-3.3125 0-6 2.6875-6 6v30c0 3.3125 2.6875 6 6 6h30c3.3125 0 6-2.6875 6-6v-30c0-3.3125-2.6875-6-6-6zm-6 30h-18v-18h18zm0 0" fill="#1ae5be"/><path d="m316.5 313.5h-30c-3.3125 0-6 2.6875-6 6v30c0 3.3125 2.6875 6 6 6h30c3.3125 0 6-2.6875 6-6v-30c0-3.3125-2.6875-6-6-6zm-6 30h-18v-18h18zm0 0" fill="#1ae5be"/><path d="m371.25 313.5h-30c-3.3125 0-6 2.6875-6 6v30c0 3.3125 2.6875 6 6 6h30c3.3125 0 6-2.6875 6-6v-30c0-3.3125-2.6875-6-6-6zm-6 30h-18v-18h18zm0 0" fill="#1ae5be"/><path d="m266.25 366h-30c-3.3125 0-6 2.6875-6 6v30c0 3.3125 2.6875 6 6 6h30c3.3125 0 6-2.6875 6-6v-30c0-3.3125-2.6875-6-6-6zm-6 30h-18v-18h18zm0 0" fill="#1ae5be"/><path d="m316.5 366h-30c-3.3125 0-6 2.6875-6 6v30c0 3.3125 2.6875 6 6 6h30c3.3125 0 6-2.6875 6-6v-30c0-3.3125-2.6875-6-6-6zm-6 30h-18v-18h18zm0 0" fill="#1ae5be"/><path d="m371.25 366h-30c-3.3125 0-6 2.6875-6 6v30c0 3.3125 2.6875 6 6 6h30c3.3125 0 6-2.6875 6-6v-30c0-3.3125-2.6875-6-6-6zm-6 30h-18v-18h18zm0 0" fill="#1ae5be"/><path d="m266.25 418.5h-30c-3.3125 0-6 2.6875-6 6v30c0 3.3125 2.6875 6 6 6h30c3.3125 0 6-2.6875 6-6v-30c0-3.3125-2.6875-6-6-6zm-6 30h-18v-18h18zm0 0" fill="#1ae5be"/><path d="m316.5 418.5h-30c-3.3125 0-6 2.6875-6 6v30c0 3.3125 2.6875 6 6 6h30c3.3125 0 6-2.6875 6-6v-30c0-3.3125-2.6875-6-6-6zm-6 30h-18v-18h18zm0 0" fill="#1ae5be"/><path d="m371.25 418.5h-30c-3.3125 0-6 2.6875-6 6v30c0 3.3125 2.6875 6 6 6h30c3.3125 0 6-2.6875 6-6v-30c0-3.3125-2.6875-6-6-6zm-6 30h-18v-18h18zm0 0" fill="#1ae5be"/></svg>