<svg id="Layer_1" viewBox="0 0 512 512" xmlns="http://www.w3.org/2000/svg" data-name="Layer 1"><path d="m225.5 374.37a99.918 99.918 0 0 1 60.692-170.116q-4.986-.5-10-.5a99.929 99.929 0 1 0 10 199.35 99.509 99.509 0 0 1 -60.692-28.734z" fill="#d4e1f4"/><g fill="#1ae5be"><path d="m341.475 89.806a11.551 11.551 0 0 0 -2.5-3.745l-72.681-72.678a11.551 11.551 0 0 0 -8.168-3.383h-192.947a27.7 27.7 0 0 0 -27.695 27.694v314.565a27.7 27.7 0 0 0 27.7 27.695h131.549l.253-12h-131.807a15.7 15.7 0 0 1 -15.695-15.695v-314.565a15.7 15.7 0 0 1 15.695-15.694h189.247v48.235a27.694 27.694 0 0 0 27.694 27.7h48.235v118.233l12 .251v-122.19a11.535 11.535 0 0 0 -.88-4.423zm-59.355-3.876a15.712 15.712 0 0 1 -15.694-15.7v-39.745l55.444 55.445z"/><path d="m166.849 102.311a6 6 0 0 0 0-12h-86.929a6 6 0 1 0 0 12z"/><path d="m305.92 148.811a6 6 0 0 0 -6-6h-150a6 6 0 0 0 0 12h150a6 6 0 0 0 6-6z"/><path d="m192.92 201.311a6 6 0 0 0 -6-6h-37a6 6 0 0 0 0 12h37a6 6 0 0 0 6-6z"/><path d="m150.92 247.811h-71a6 6 0 0 0 0 12h71a6 6 0 1 0 0-12z"/><path d="m149.92 300.311h-70a6 6 0 0 0 0 12h70a6 6 0 1 0 0-12z"/><path d="m98.617 207.275c-.043 0-.086-.006-.13-.006s-.087 0-.13.006a12.578 12.578 0 0 1 -12.437-12.561 6 6 0 0 0 -12 0 24.61 24.61 0 0 0 18.567 23.824v5.791a6 6 0 0 0 12 0v-5.791a24.567 24.567 0 0 0 -6-48.391 12.568 12.568 0 1 1 12.568-12.567 6 6 0 0 0 12 0 24.61 24.61 0 0 0 -18.568-23.824v-4.945a6 6 0 0 0 -12 0v4.945a24.568 24.568 0 0 0 6 48.391 12.564 12.564 0 0 1 .13 25.128z"/></g><path d="m254.958 278.636c0-2.376-1.008-4.969-3.384-4.969h-31.107c-2.376 0-3.384 2.593-3.384 4.969 0 2.737 1.224 5.113 3.384 5.113h9.933v39.1c0 2.3 2.808 3.456 5.617 3.456s5.616-1.152 5.616-3.456v-39.1h9.937c2.164 0 3.388-2.376 3.388-5.113z" fill="#0635c9"/><path d="m282.246 324.216c.432 1.512 1.872 2.088 3.672 2.088 3.1 0 7.2-1.944 7.2-4.608a3.715 3.715 0 0 0 -.144-.792l-13.464-43.924c-.792-2.521-4.032-3.744-7.345-3.744s-6.553 1.223-7.345 3.744l-13.393 43.92a3.715 3.715 0 0 0 -.144.792c0 2.664 4.105 4.608 7.2 4.608 1.8 0 3.241-.576 3.673-2.088l2.448-9h15.196zm-15.338-17.641 5.257-19.3 5.257 19.3z" fill="#0635c9"/><path d="m293.979 321.192c0 3.1 4.392 5.544 7.488 5.544a3.025 3.025 0 0 0 2.664-1.152l10.514-17.857 10.512 17.857a2.943 2.943 0 0 0 2.664 1.152c3.1 0 7.489-2.448 7.489-5.544a3.892 3.892 0 0 0 -.648-2.016l-12.457-19.226 11.953-19.15a4.073 4.073 0 0 0 .72-2.232c0-3.024-4.1-5.328-7.273-5.328a3.5 3.5 0 0 0 -3.384 1.872l-9.576 16.7-9.578-16.7a3.5 3.5 0 0 0 -3.384-1.872c-3.168 0-7.273 2.3-7.273 5.328a4.067 4.067 0 0 0 .721 2.232l11.953 19.154-12.458 19.226a3.89 3.89 0 0 0 -.647 2.012z" fill="#0635c9"/><path d="m466.107 452.992-48.172-48.173a6 6 0 0 0 -8.486 0l-11.814 11.815-38.175-38.175a112.109 112.109 0 1 0 -8.485 8.485l38.175 38.175-11.814 11.815a6 6 0 0 0 0 8.485l48.171 48.172a28.708 28.708 0 1 0 40.6-40.6zm-189.913-49.341a99.973 99.973 0 1 1 99.973-99.973 100.085 100.085 0 0 1 -99.973 99.973zm181.429 81.455a16.708 16.708 0 0 1 -23.629 0l-43.929-43.929 23.629-23.63 43.931 43.93a16.728 16.728 0 0 1 -.002 23.629z" fill="#0635c9"/></svg>