<?xml version="1.0" encoding="iso-8859-1"?>
<!-- Generator: Adobe Illustrator 19.0.0, SVG Export Plug-In . SVG Version: 6.00 Build 0)  -->
<svg version="1.1" id="Capa_1" xmlns="http://www.w3.org/2000/svg" xmlns:xlink="http://www.w3.org/1999/xlink" x="0px" y="0px"
	 viewBox="0 0 512 512" style="enable-background:new 0 0 512 512;" xml:space="preserve">
<path style="fill:#CFD8DC;" d="M85.333,192h341.333c5.891,0,10.667,4.776,10.667,10.667v256c0,5.891-4.776,10.667-10.667,10.667
	H85.333c-5.891,0-10.667-4.776-10.667-10.667v-256C74.667,196.776,79.442,192,85.333,192z"/>
<path style="fill:#64B5F6;" d="M128,277.333h106.667c5.891,0,10.667,4.776,10.667,10.667v106.667
	c0,5.891-4.776,10.667-10.667,10.667H128c-5.891,0-10.667-4.776-10.667-10.667V288C117.333,282.109,122.109,277.333,128,277.333z"/>
<path style="fill:#607D8B;" d="M277.333,277.333H384c5.891,0,10.667,4.776,10.667,10.667v170.667
	c0,5.891-4.776,10.667-10.667,10.667H277.333c-5.891,0-10.667-4.776-10.667-10.667V288
	C266.667,282.109,271.442,277.333,277.333,277.333z"/>
<g>
	<path style="fill:#455A64;" d="M448,448H64c-29.455,0-53.333,23.878-53.333,53.333c0,5.891,4.776,10.667,10.667,10.667h469.333
		c5.891,0,10.667-4.776,10.667-10.667C501.333,471.878,477.455,448,448,448z"/>
	<path style="fill:#455A64;" d="M362.667,0H149.333C119.878,0,96,23.878,96,53.333V96c0,5.891,4.776,10.667,10.667,10.667h298.667
		c5.891,0,10.667-4.776,10.667-10.667V53.333C416,23.878,392.122,0,362.667,0z"/>
</g>
<path style="fill:#2196F3;" d="M157.589,89.237c-2.028-2.473-5.058-3.906-8.256-3.904h-42.667c-3.75-0.001-7.225,1.967-9.152,5.184
	l-64,106.667c-0.992,1.657-1.515,3.552-1.515,5.483C32,232.122,55.878,256,85.333,256c28.698,0.255,52.319-22.512,53.12-51.2
	l21.333-106.667C160.43,94.988,159.623,91.721,157.589,89.237z"/>
<path style="fill:#64B5F6;" d="M213.333,85.333h-64c-5.07-0.001-9.439,3.566-10.453,8.533l-21.547,108.8
	c0,29.455,23.878,53.333,53.333,53.333S224,232.122,224,202.667V96C224,90.109,219.224,85.333,213.333,85.333z"/>
<path style="fill:#2196F3;" d="M478.485,197.184l-64-106.667c-1.927-3.217-5.402-5.185-9.152-5.184h-42.667
	c-5.891-0.001-10.668,4.773-10.669,10.664c0,0.717,0.072,1.433,0.215,2.136l21.12,104.533c0,29.455,23.878,53.333,53.333,53.333
	S480,232.122,480,202.667C480.001,200.736,479.477,198.841,478.485,197.184z"/>
<path style="fill:#64B5F6;" d="M373.12,93.867c-1.014-4.967-5.384-8.534-10.453-8.533h-64C292.776,85.333,288,90.109,288,96v106.667
	c-1.177,29.432,21.728,54.245,51.16,55.422c29.432,1.177,54.245-21.728,55.422-51.16c0.085-2.132,0.042-4.268-0.128-6.395
	L373.12,93.867z"/>
<path style="fill:#2196F3;" d="M298.667,85.333h-85.333c-5.891,0-10.667,4.776-10.667,10.667v106.667
	C202.667,232.122,226.545,256,256,256c29.455,0,53.333-23.878,53.333-53.333V96C309.333,90.109,304.558,85.333,298.667,85.333z"/>
<g>
</g>
<g>
</g>
<g>
</g>
<g>
</g>
<g>
</g>
<g>
</g>
<g>
</g>
<g>
</g>
<g>
</g>
<g>
</g>
<g>
</g>
<g>
</g>
<g>
</g>
<g>
</g>
<g>
</g>
</svg>
